<svg width="195" height="50" viewBox="0 0 195 50" fill="none" xmlns="http://www.w3.org/2000/svg">
<path d="M83.6529 12.5L94.4716 36.1111H86.8636L85.712 32.9861H78.3134L77.1617 36.1111H69.5537L80.3724 12.5H83.6529ZM82.0127 22.9861L80.2328 27.7778H83.7925L82.0127 22.9861Z" fill="#31125F"/>
<path d="M117.695 12.8472L106.876 36.4583H103.596L92.7769 12.8472H100.385L105.236 25.625L110.087 12.8472H117.695Z" fill="#31125F"/>
<path d="M139.138 21.9097V26.7708H129.855V30.5556H140.36V36.1111H123.329V12.8472H140.36V18.2292H129.855V21.9097H139.138Z" fill="#31125F"/>
<path d="M158.453 12.8472C159.639 12.8472 160.791 13.0093 161.908 13.3333C163.048 13.6574 164.071 14.1551 164.979 14.8264C165.886 15.4977 166.607 16.3426 167.143 17.3611C167.701 18.3796 167.98 19.5718 167.98 20.9375C167.98 22.6736 167.48 24.1088 166.48 25.2431C165.502 26.3773 164.246 27.1528 162.71 27.5694L169.167 36.1111H161.21L154.963 26.875V36.1111H148.437V12.8472H158.453ZM154.963 18.9236V23.2639C155.358 23.4028 155.777 23.5185 156.219 23.6111C156.685 23.7037 157.173 23.75 157.685 23.75C158.709 23.75 159.558 23.5532 160.233 23.1597C160.931 22.7431 161.28 22.1181 161.28 21.2847C161.28 20.3356 160.931 19.7106 160.233 19.4097C159.558 19.0856 158.709 18.9236 157.685 18.9236H154.963Z" fill="#31125F"/>
<path d="M194.554 12.8472L185.41 28.0903V36.1111H178.884V28.0903L169.74 12.8472H177.348L182.165 21.4583L186.946 12.8472H194.554Z" fill="#31125F"/>
<path fill-rule="evenodd" clip-rule="evenodd" d="M25.5565 38.8632L43.3524 29.2685C45.8306 27.8819 48.9614 28.7707 50.3453 31.2537C51.7292 33.7366 50.8422 36.8734 48.364 38.26L25.5575 50.0016L25.5565 38.8632Z" fill="url(#paint0_linear_10748_73999)"/>
<path fill-rule="evenodd" clip-rule="evenodd" d="M25.5573 38.8628L7.64606 29.0724C5.16791 27.6858 2.0371 28.5746 0.653189 31.0576C-0.730719 33.5405 0.156341 36.6773 2.63449 38.0639L25.5575 50.0016L25.5573 38.8628Z" fill="#7B4EBE"/>
<path d="M2.76279 14.3899C1.94349 13.9161 1.888 13.0587 2.70731 12.5849L23.9586 0.417149C24.7779 -0.0566357 26.1652 -0.170153 26.9845 0.303632L48.1214 12.6742C48.9407 13.148 48.9407 13.9161 48.1214 14.3899L26.9256 26.647C26.1063 27.1207 24.7779 27.1207 23.9586 26.647L2.76279 14.3899Z" fill="url(#paint1_linear_10748_73999)"/>
<path d="M25.5497 14.721L19.2728 18.2971L12.4181 14.5842L25.5497 7.28315V14.721Z" fill="#01457D" fill-opacity="0.5"/>
<path d="M25.5631 14.7209L31.5541 18.2971L38.1231 14.5842L25.5631 7.28315V14.7209Z" fill="#15C2FF"/>
<path fill-rule="evenodd" clip-rule="evenodd" d="M25.5562 21.7245L42.6193 11.9416C45.0975 10.5551 48.2283 11.4438 49.6122 13.9268C50.9961 16.4097 50.109 19.5465 47.6309 20.9331L25.5562 32.8633V21.7245Z" fill="url(#paint2_linear_10748_73999)"/>
<path fill-rule="evenodd" clip-rule="evenodd" d="M25.5562 21.7245L7.63626 11.9162C5.15814 10.5296 2.02731 11.4184 0.643388 13.9013C-0.533175 16.0122 0.229367 19.0527 2.70749 20.4392L25.5562 32.8633V21.7245Z" fill="#562999"/>
<defs>
<linearGradient id="paint0_linear_10748_73999" x1="-3.46394" y1="47.368" x2="-4.10994" y2="17.2254" gradientUnits="userSpaceOnUse">
<stop stop-color="#27125F"/>
<stop offset="1" stop-color="#A061FF"/>
</linearGradient>
<linearGradient id="paint1_linear_10748_73999" x1="25.1835" y1="5.79592e-09" x2="25.0561" y2="34.3401" gradientUnits="userSpaceOnUse">
<stop stop-color="#15C2FF"/>
<stop offset="0.8125" stop-color="#0065B8"/>
<stop offset="1" stop-color="#002645"/>
</linearGradient>
<linearGradient id="paint2_linear_10748_73999" x1="15.6013" y1="17.5661" x2="39.2461" y2="-0.608971" gradientUnits="userSpaceOnUse">
<stop stop-color="#31125F"/>
<stop offset="0.941833" stop-color="#A061FF"/>
</linearGradient>
</defs>
</svg>
