<svg width="124" height="65" viewBox="0 0 124 65" fill="none" xmlns="http://www.w3.org/2000/svg">
<g id="Group 238371">
<path id="Icon Bg" fill-rule="evenodd" clip-rule="evenodd" d="M80.0717 64.9997H27.0229C24.7692 64.9997 22.9422 63.3694 22.9422 61.3583C22.9422 59.3473 24.7692 57.717 27.0229 57.717H4.28771C2.03401 57.717 0.207031 56.0867 0.207031 54.0756C0.207031 52.0645 2.03401 50.4342 4.28771 50.4342H27.6059C29.8596 50.4342 31.6865 48.8039 31.6865 46.7928C31.6865 44.7818 29.8596 43.1515 27.6059 43.1515H13.032C10.7783 43.1515 8.95134 41.5212 8.95134 39.5101C8.95134 37.499 10.7783 35.8687 13.032 35.8687H36.3502C34.0965 35.8687 32.2695 34.2384 32.2695 32.2273C32.2695 30.2162 34.0965 28.5859 36.3502 28.5859H69.5785C71.8322 28.5859 73.6592 30.2162 73.6592 32.2273C73.6592 34.2384 71.8322 35.8687 69.5785 35.8687H106.888C109.141 35.8687 110.968 37.499 110.968 39.5101C110.968 41.5212 109.141 43.1515 106.888 43.1515H119.713C121.966 43.1515 123.793 44.7818 123.793 46.7928C123.793 48.8039 121.966 50.4342 119.713 50.4342H108.636C106.383 50.4342 104.556 52.0645 104.556 54.0756C104.556 56.0867 106.383 57.717 108.636 57.717H112.134C114.388 57.717 116.215 59.3473 116.215 61.3583C116.215 63.3694 114.388 64.9997 112.134 64.9997H81.8206C81.2395 64.9997 80.6528 64.9997 80.0717 64.9997Z" fill="#F1F3F8"/>
<g id="Icon">
<path d="M74.2616 2.0461C73.6359 1.38447 72.7713 1 71.863 1H47.4852C43.9226 1 41.0345 3.90241 41.0344 7.48273L41.0342 46.3792C41.0342 49.9595 43.9223 52.8619 47.4849 52.8619L76.5135 52.8621C80.0761 52.8621 82.9642 49.9597 82.9643 46.3795L82.9652 12.0148C82.9652 11.186 82.6506 10.3893 82.0782 9.7926C81.0197 8.68922 79.2522 6.8737 78.1271 5.86207C76.6916 4.5713 75.202 3.04039 74.2616 2.0461Z" fill="#237FCA"/>
<path d="M70.0637 1V10.7241C70.0637 12.5143 71.5077 13.9655 73.2891 13.9655H82.9652M52.324 13.9655H58.7748M52.324 23.6897H71.6764M52.324 33.4138H71.6764M78.1271 5.86207C76.6916 4.5713 75.202 3.04039 74.2616 2.0461C73.6359 1.38447 72.7713 1 71.863 1H47.4852C43.9226 1 41.0345 3.90241 41.0344 7.48273L41.0342 46.3792C41.0342 49.9595 43.9223 52.8619 47.4849 52.862L76.5135 52.8621C80.0761 52.8621 82.9642 49.9597 82.9643 46.3795L82.9652 12.0148C82.9652 11.186 82.6506 10.3893 82.0782 9.7926C81.0197 8.68922 79.2522 6.8737 78.1271 5.86207Z" stroke="black" stroke-width="2" stroke-linecap="round" stroke-linejoin="round"/>
</g>
<path id="Icon_2" d="M52.0703 14.1367H58.5211M52.0703 23.8609H71.4226M52.0703 33.585H71.4226" stroke="white" stroke-width="3" stroke-linecap="round" stroke-linejoin="round"/>
</g>
</svg>
