<svg width="131" height="132" viewBox="0 0 131 132" fill="none" xmlns="http://www.w3.org/2000/svg">
<path d="M119.868 68.6296C117.797 76.2979 117.877 84.4405 115.768 92.0534C115.411 93.3443 115.264 97.7702 114.153 98.6753M114.153 98.6753C112.71 99.8496 108.76 96.8486 107.818 96.1744C103.071 92.7748 94.8476 86.7704 90.0938 82.5182M114.153 98.6753C108.694 77.7282 84.0667 53.9738 65.4132 60.2542M65.4132 60.2542C60.4747 61.9169 55.9549 65.6848 52.3203 72.1674C45.4486 84.4247 62.5904 92.0888 69.1919 80.9762C72.8359 74.8404 69.4796 66.4282 65.4132 60.2542ZM65.4132 60.2542C64.2453 58.4808 63.0188 56.8922 61.8827 55.5951C47.7978 39.5139 20.7921 33.7243 1.00025 40.6387" stroke="white" stroke-width="2" stroke-miterlimit="1.5" stroke-linecap="round" stroke-linejoin="round"/>
</svg>
