<svg width="500" height="187" viewBox="0 0 500 187" fill="none" xmlns="http://www.w3.org/2000/svg">
<path fill-rule="evenodd" clip-rule="evenodd" d="M323.113 187H108.491C99.3727 187 91.9811 180.329 91.9811 172.1C91.9811 163.871 99.3727 157.2 108.491 157.2H16.5094C7.39152 157.2 0 150.529 0 142.3C0 134.071 7.39152 127.4 16.5094 127.4H110.849C119.967 127.4 127.358 120.729 127.358 112.5C127.358 104.271 119.967 97.6 110.849 97.6H51.8868C42.7689 97.6 35.3774 90.929 35.3774 82.7C35.3774 74.471 42.7689 67.8 51.8868 67.8H146.226C137.109 67.8 129.717 61.129 129.717 52.9C129.717 44.671 137.109 38 146.226 38H280.66C289.778 38 297.17 44.671 297.17 52.9C297.17 61.129 289.778 67.8 280.66 67.8H431.604C440.722 67.8 448.113 74.471 448.113 82.7C448.113 90.929 440.722 97.6 431.604 97.6H483.491C492.608 97.6 500 104.271 500 112.5C500 120.729 492.608 127.4 483.491 127.4H438.679C429.561 127.4 422.17 134.071 422.17 142.3C422.17 150.529 429.561 157.2 438.679 157.2H452.83C461.948 157.2 469.34 163.871 469.34 172.1C469.34 180.329 461.948 187 452.83 187H330.189C329.519 187 328.858 186.964 328.209 186.894C327.174 186.782 326.128 186.782 325.093 186.894C324.444 186.964 323.783 187 323.113 187Z" fill="#F1F3F8"/>
<path d="M202 73.8985C202 53.4639 218.565 36.8984 239 36.8984H293.582C314.016 36.8984 330.582 53.4639 330.582 73.8984V93.8189C330.582 114.253 314.016 130.819 293.582 130.819H239C218.565 130.819 202 114.253 202 93.8189V73.8985Z" fill="#4690DC"/>
<path fill-rule="evenodd" clip-rule="evenodd" d="M293.582 42.8984H239C221.879 42.8984 208 56.7776 208 73.8985V93.8189C208 110.94 221.879 124.819 239 124.819H293.582C310.702 124.819 324.582 110.94 324.582 93.8189V73.8984C324.582 56.7776 310.702 42.8984 293.582 42.8984ZM239 36.8984C218.565 36.8984 202 53.4639 202 73.8985V93.8189C202 114.253 218.565 130.819 239 130.819H293.582C314.016 130.819 330.582 114.253 330.582 93.8189V73.8984C330.582 53.4639 314.016 36.8984 293.582 36.8984H239Z" fill="#31125F"/>
<path d="M328 72.002C328 69.2405 330.239 67.002 333 67.002C335.761 67.002 338 69.2405 338 72.002V90.002C338 92.7634 335.761 95.002 333 95.002C330.239 95.002 328 92.7634 328 90.002V72.002Z" fill="#31125F"/>
<path d="M195 72.002C195 69.2405 197.239 67.002 200 67.002C202.761 67.002 205 69.2405 205 72.002V90.002C205 92.7634 202.761 95.002 200 95.002C197.239 95.002 195 92.7634 195 90.002V72.002Z" fill="#31125F"/>
<rect x="290.055" y="126.348" width="15.6534" height="48.0784" rx="7.82671" transform="rotate(90 290.055 126.348)" fill="#31125F"/>
<rect x="231.891" y="64.8516" width="20.1258" height="31.3068" rx="10.0629" fill="#31125F"/>
<rect x="276.641" y="64.8516" width="20.1258" height="31.3068" rx="10.0629" fill="#31125F"/>
<path d="M261 10H271.063V41.3068H261V10Z" fill="#31125F"/>
<path d="M279.834 13.4172C279.834 20.8273 273.827 26.8344 266.417 26.8344C259.007 26.8344 253 20.8273 253 13.4172C253 6.00709 259.007 0 266.417 0C273.827 0 279.834 6.00709 279.834 13.4172Z" fill="#4690DC"/>
<path fill-rule="evenodd" clip-rule="evenodd" d="M266.417 20.8344C270.514 20.8344 273.834 17.5136 273.834 13.4172C273.834 9.3208 270.514 6 266.417 6C262.321 6 259 9.3208 259 13.4172C259 17.5136 262.321 20.8344 266.417 20.8344ZM266.417 26.8344C273.827 26.8344 279.834 20.8273 279.834 13.4172C279.834 6.00709 273.827 0 266.417 0C259.007 0 253 6.00709 253 13.4172C253 20.8273 259.007 26.8344 266.417 26.8344Z" fill="#31125F"/>
</svg>
