<svg width="168" height="50" viewBox="0 0 168 50" fill="none" xmlns="http://www.w3.org/2000/svg">
<path d="M42.7368 7.35294C42.7368 9.78949 40.7575 11.7647 38.3158 11.7647C35.8741 11.7647 33.8947 9.78949 33.8947 7.35294C33.8947 4.91639 35.8741 2.94118 38.3158 2.94118C40.7575 2.94118 42.7368 4.91639 42.7368 7.35294Z" fill="#7951B4"/>
<path d="M39.0385 26.7147C37.827 27.7996 35.9635 27.6989 34.8764 26.4899C33.7893 25.281 33.8901 23.4214 35.1016 22.3366C36.3132 21.2517 38.1766 21.3523 39.2637 22.5613C40.3509 23.7703 40.2501 25.6298 39.0385 26.7147Z" fill="#7951B4"/>
<path d="M36.68 19.8879C35.6199 20.8371 33.9894 20.7491 33.0382 19.6912C32.0869 18.6333 32.1752 17.0063 33.2352 16.057C34.2953 15.1077 35.9259 15.1958 36.8771 16.2537C37.8284 17.3115 37.7401 18.9386 36.68 19.8879Z" fill="#7951B4"/>
<path d="M31.8611 15.4186C30.9524 16.2322 29.5549 16.1568 28.7395 15.25C27.9241 14.3433 27.9998 12.9486 28.9084 12.135C29.8171 11.3214 31.2147 11.3968 32.03 12.3036C32.8454 13.2103 32.7697 14.605 31.8611 15.4186Z" fill="#7951B4"/>
<path d="M26.6737 13.5229C25.9165 14.2009 24.7519 14.138 24.0724 13.3824C23.3929 12.6268 23.456 11.4646 24.2132 10.7865C24.9704 10.1085 26.135 10.1714 26.8145 10.927C27.494 11.6826 27.4309 12.8448 26.6737 13.5229Z" fill="#7951B4"/>
<path d="M21.8547 13.4653C21.249 14.0078 20.3173 13.9575 19.7737 13.353C19.2301 12.7485 19.2805 11.8187 19.8863 11.2763C20.4921 10.7339 21.4238 10.7842 21.9674 11.3887C22.5109 11.9932 22.4605 12.9229 21.8547 13.4653Z" fill="#BA97EC"/>
<path d="M17.4337 15.3035C16.8279 15.846 15.8962 15.7957 15.3526 15.1912C14.8091 14.5867 14.8595 13.6569 15.4653 13.1145C16.071 12.572 17.0027 12.6224 17.5463 13.2269C18.0899 13.8313 18.0395 14.7611 17.4337 15.3035Z" fill="#BA97EC"/>
<path d="M14.4863 18.6123C13.8805 19.1547 12.9488 19.1044 12.4052 18.4999C11.8617 17.8954 11.9121 16.9657 12.5179 16.4232C13.1236 15.8808 14.0554 15.9311 14.5989 16.5356C15.1425 17.1401 15.0921 18.0699 14.4863 18.6123Z" fill="#BA97EC"/>
<path d="M12.6133 22.2297C12.159 22.6365 11.4602 22.5988 11.0525 22.1454C10.6449 21.6921 10.6827 20.9947 11.137 20.5879C11.5913 20.1811 12.2901 20.2188 12.6978 20.6722C13.1055 21.1256 13.0677 21.8229 12.6133 22.2297Z" fill="#BA97EC"/>
<path d="M9.65904 24.8694C10.8706 23.7845 12.734 23.8851 13.8212 25.0941C14.9083 26.3031 14.8075 28.1626 13.5959 29.2475C12.3844 30.3323 10.521 30.2317 9.43381 29.0227C8.34667 27.8137 8.44751 25.9542 9.65904 24.8694Z" fill="#237FCA"/>
<path d="M12.717 31.0224C13.7771 30.0732 15.4076 30.1612 16.3588 31.2191C17.3101 32.277 17.2219 33.9041 16.1618 34.8533C15.1017 35.8026 13.4712 35.7145 12.5199 34.6566C11.5687 33.5988 11.6569 31.9717 12.717 31.0224Z" fill="#237FCA"/>
<path d="M17.4765 34.664C18.3852 33.8503 19.7827 33.9258 20.5981 34.8325C21.4135 35.7393 21.3378 37.1339 20.4292 37.9475C19.5205 38.7612 18.123 38.6857 17.3076 37.779C16.4922 36.8722 16.5679 35.4776 17.4765 34.664Z" fill="#237FCA"/>
<path d="M22.7395 35.7866C23.4967 35.1086 24.6614 35.1715 25.3408 35.9271C26.0203 36.6827 25.9573 37.8449 25.2001 38.5229C24.4428 39.201 23.2782 39.1381 22.5987 38.3825C21.9193 37.6269 21.9823 36.4646 22.7395 35.7866Z" fill="#237FCA"/>
<path d="M26.8863 35.9087C27.4921 35.3663 28.4238 35.4166 28.9674 36.0211C29.5109 36.6256 29.4605 37.5554 28.8548 38.0978C28.249 38.6402 27.3173 38.5899 26.7737 37.9854C26.2301 37.3809 26.2805 36.4512 26.8863 35.9087Z" fill="#4DC0E9"/>
<path d="M30.2021 34.0705C30.8078 33.5281 31.7396 33.5784 32.2831 34.1829C32.8267 34.7874 32.7763 35.7172 32.1705 36.2596C31.5648 36.802 30.633 36.7517 30.0895 36.1472C29.5459 35.5427 29.5963 34.613 30.2021 34.0705Z" fill="#4DC0E9"/>
<path d="M33.1495 31.4969C33.7552 30.9545 34.687 31.0048 35.2305 31.6093C35.7741 32.2138 35.7237 33.1435 35.1179 33.686C34.5122 34.2284 33.5804 34.1781 33.0369 33.5736C32.4933 32.9691 32.5437 32.0393 33.1495 31.4969Z" fill="#4DC0E9"/>
<path d="M35.0858 28.6778C35.5401 28.271 36.2389 28.3087 36.6466 28.7621C37.0543 29.2154 37.0165 29.9128 36.5621 30.3196C36.1078 30.7264 35.409 30.6887 35.0013 30.2353C34.5937 29.7819 34.6315 29.0846 35.0858 28.6778Z" fill="#4DC0E9"/>
<path d="M32.4211 4.04412C32.4211 6.27762 30.6066 8.08823 28.3684 8.08823C26.1302 8.08823 24.3158 6.27762 24.3158 4.04412C24.3158 1.81061 26.1302 0 28.3684 0C30.6066 0 32.4211 1.81061 32.4211 4.04412Z" fill="#7951B4"/>
<path d="M22.8421 3.67647C22.8421 5.70693 21.1926 7.35294 19.1579 7.35294C17.1232 7.35294 15.4737 5.70693 15.4737 3.67647C15.4737 1.64601 17.1232 0 19.1579 0C21.1926 0 22.8421 1.64601 22.8421 3.67647Z" fill="#7951B4"/>
<path d="M14 7.35294C14 9.18035 12.5155 10.6618 10.6842 10.6618C8.85295 10.6618 7.36842 9.18035 7.36842 7.35294C7.36842 5.52553 8.85295 4.04412 10.6842 4.04412C12.5155 4.04412 14 5.52553 14 7.35294Z" fill="#7951B4"/>
<path d="M8.10526 13.6029C8.10526 15.2273 6.78568 16.5441 5.15789 16.5441C3.53011 16.5441 2.21053 15.2273 2.21053 13.6029C2.21053 11.9786 3.53011 10.6618 5.15789 10.6618C6.78568 10.6618 8.10526 11.9786 8.10526 13.6029Z" fill="#BA97EC"/>
<path d="M5.15789 20.5882C5.15789 22.0096 4.00326 23.1618 2.57895 23.1618C1.15463 23.1618 0 22.0096 0 20.5882C0 19.1669 1.15463 18.0147 2.57895 18.0147C4.00326 18.0147 5.15789 19.1669 5.15789 20.5882Z" fill="#BA97EC"/>
<path d="M4.42105 26.8382C4.42105 28.0565 3.43137 29.0441 2.21053 29.0441C0.989686 29.0441 0 28.0565 0 26.8382C0 25.62 0.989686 24.6324 2.21053 24.6324C3.43137 24.6324 4.42105 25.62 4.42105 26.8382Z" fill="#BA97EC"/>
<path d="M5.15789 32.3529C5.15789 33.3682 4.33316 34.1912 3.31579 34.1912C2.29842 34.1912 1.47368 33.3682 1.47368 32.3529C1.47368 31.3377 2.29842 30.5147 3.31579 30.5147C4.33316 30.5147 5.15789 31.3377 5.15789 32.3529Z" fill="#BA97EC"/>
<path d="M7 36.7647C7 37.5769 6.34021 38.2353 5.52632 38.2353C4.71242 38.2353 4.05263 37.5769 4.05263 36.7647C4.05263 35.9525 4.71242 35.2941 5.52632 35.2941C6.34021 35.2941 7 35.9525 7 36.7647Z" fill="#BA97EC"/>
<path d="M5.52632 42.6471C5.52632 40.2105 7.50569 38.2353 9.94737 38.2353C12.389 38.2353 14.3684 40.2105 14.3684 42.6471C14.3684 45.0836 12.389 47.0588 9.94737 47.0588C7.50569 47.0588 5.52632 45.0836 5.52632 42.6471Z" fill="#237FCA"/>
<path d="M15.8421 45.9559C15.8421 43.7224 17.6565 41.9118 19.8947 41.9118C22.1329 41.9118 23.9474 43.7224 23.9474 45.9559C23.9474 48.1894 22.1329 50 19.8947 50C17.6565 50 15.8421 48.1894 15.8421 45.9559Z" fill="#237FCA"/>
<path d="M25.4211 46.3235C25.4211 44.2931 27.0705 42.6471 29.1053 42.6471C31.14 42.6471 32.7895 44.2931 32.7895 46.3235C32.7895 48.354 31.14 50 29.1053 50C27.0705 50 25.4211 48.354 25.4211 46.3235Z" fill="#237FCA"/>
<path d="M34.2632 42.6471C34.2632 40.8196 35.7477 39.3382 37.5789 39.3382C39.4102 39.3382 40.8947 40.8196 40.8947 42.6471C40.8947 44.4745 39.4102 45.9559 37.5789 45.9559C35.7477 45.9559 34.2632 44.4745 34.2632 42.6471Z" fill="#237FCA"/>
<path d="M40.1579 36.3971C40.1579 34.7727 41.4775 33.4559 43.1053 33.4559C44.733 33.4559 46.0526 34.7727 46.0526 36.3971C46.0526 38.0214 44.733 39.3382 43.1053 39.3382C41.4775 39.3382 40.1579 38.0214 40.1579 36.3971Z" fill="#4DC0E9"/>
<path d="M43.1053 29.4118C43.1053 27.9904 44.2599 26.8382 45.6842 26.8382C47.1085 26.8382 48.2632 27.9904 48.2632 29.4118C48.2632 30.8331 47.1085 31.9853 45.6842 31.9853C44.2599 31.9853 43.1053 30.8331 43.1053 29.4118Z" fill="#4DC0E9"/>
<path d="M43.8421 23.1618C43.8421 21.9435 44.8318 20.9559 46.0526 20.9559C47.2735 20.9559 48.2632 21.9435 48.2632 23.1618C48.2632 24.38 47.2735 25.3676 46.0526 25.3676C44.8318 25.3676 43.8421 24.38 43.8421 23.1618Z" fill="#4DC0E9"/>
<path d="M43.1053 17.6471C43.1053 16.6318 43.93 15.8088 44.9474 15.8088C45.9647 15.8088 46.7895 16.6318 46.7895 17.6471C46.7895 18.6623 45.9647 19.4853 44.9474 19.4853C43.93 19.4853 43.1053 18.6623 43.1053 17.6471Z" fill="#4DC0E9"/>
<path d="M41.2632 13.2353C41.2632 12.4231 41.9229 11.7647 42.7368 11.7647C43.5507 11.7647 44.2105 12.4231 44.2105 13.2353C44.2105 14.0475 43.5507 14.7059 42.7368 14.7059C41.9229 14.7059 41.2632 14.0475 41.2632 13.2353Z" fill="#4DC0E9"/>
<path d="M70.9343 15.1484L79.6339 34.1914H73.5161L72.59 31.671H66.6406L65.7145 34.1914H59.5967L68.2963 15.1484H70.9343ZM69.6153 23.6058L68.1841 27.4704H71.0465L69.6153 23.6058Z" fill="#31125F"/>
<path d="M99.4578 15.4285L90.7582 34.4715H88.1202L79.4206 15.4285H85.5384L89.4392 25.7341L93.34 15.4285H99.4578Z" fill="#31125F"/>
<path d="M117.851 22.7376V26.6582H110.386V29.7107H118.833V34.1914H105.138V15.4285H118.833V19.7692H110.386V22.7376H117.851Z" fill="#31125F"/>
<path d="M134.531 15.4285C135.486 15.4285 136.412 15.5592 137.31 15.8205C138.226 16.0819 139.05 16.4833 139.779 17.0247C140.509 17.5661 141.089 18.2476 141.519 19.069C141.968 19.8905 142.193 20.852 142.193 21.9535C142.193 23.3537 141.79 24.5112 140.986 25.426C140.2 26.3408 139.19 26.9663 137.955 27.3023L143.147 34.1914H136.748L131.725 26.7422V34.1914H126.477V15.4285H134.531ZM131.725 20.3292V23.8298C132.043 23.9418 132.38 24.0352 132.735 24.1098C133.109 24.1845 133.502 24.2219 133.914 24.2219C134.737 24.2219 135.42 24.0632 135.963 23.7458C136.524 23.4097 136.804 22.9056 136.804 22.2335C136.804 21.4681 136.524 20.964 135.963 20.7213C135.42 20.4599 134.737 20.3292 133.914 20.3292H131.725Z" fill="#31125F"/>
<path d="M164.711 15.4285L157.358 27.7224V34.1914H152.11V27.7224L144.758 15.4285H150.875L154.748 22.3736L158.593 15.4285H164.711Z" fill="#31125F"/>
</svg>
