<svg width="456" height="136" viewBox="0 0 456 136" fill="none" xmlns="http://www.w3.org/2000/svg">
<path d="M116 20C116 26.6274 110.627 32 104 32C97.3726 32 92 26.6274 92 20C92 13.3726 97.3726 8 104 8C110.627 8 116 13.3726 116 20Z" fill="#7951B4"/>
<path d="M105.962 72.664C102.673 75.6148 97.6153 75.3411 94.6645 72.0527C91.7137 68.7642 91.9874 63.7063 95.2758 60.7555C98.5643 57.8047 103.622 58.0784 106.573 61.3668C109.524 64.6552 109.25 69.7132 105.962 72.664Z" fill="#7951B4"/>
<path d="M99.5601 54.095C96.6827 56.677 92.257 56.4375 89.675 53.5601C87.0931 50.6827 87.3326 46.257 90.21 43.675C93.0873 41.0931 97.513 41.3326 100.095 44.21C102.677 47.0873 102.437 51.513 99.5601 54.095Z" fill="#7951B4"/>
<path d="M86.4801 41.9386C84.0138 44.1517 80.2203 43.9464 78.0072 41.4801C75.7941 39.0138 75.9994 35.2203 78.4657 33.0072C80.932 30.7941 84.7255 30.9994 86.9386 33.4657C89.1517 35.932 88.9464 39.7255 86.4801 41.9386Z" fill="#7951B4"/>
<path d="M72.4001 36.7822C70.3448 38.6264 67.1836 38.4554 65.3394 36.4001C63.4951 34.3448 63.6662 31.1836 65.7215 29.3393C67.7767 27.4951 70.9379 27.6662 72.7822 29.7214C74.6265 31.7767 74.4554 34.9379 72.4001 36.7822Z" fill="#7951B4"/>
<path d="M59.32 36.6257C57.6758 38.1011 55.1468 37.9643 53.6714 36.3201C52.196 34.6758 52.3329 32.1469 53.9771 30.6715C55.6213 29.1961 58.1503 29.3329 59.6257 30.9771C61.1011 32.6214 60.9642 35.1503 59.32 36.6257Z" fill="#BA97EC"/>
<path d="M47.32 41.6256C45.6758 43.101 43.1469 42.9642 41.6715 41.32C40.196 39.6757 40.3329 37.1468 41.9771 35.6714C43.6213 34.196 46.1503 34.3328 47.6257 35.977C49.1011 37.6213 48.9643 40.1502 47.32 41.6256Z" fill="#BA97EC"/>
<path d="M39.32 50.6255C37.6758 52.1009 35.1468 51.964 33.6714 50.3198C32.196 48.6756 32.3328 46.1466 33.9771 44.6712C35.6213 43.1958 38.1502 43.3327 39.6256 44.9769C41.1011 46.6211 40.9642 49.1501 39.32 50.6255Z" fill="#BA97EC"/>
<path d="M34.2362 60.4648C33.003 61.5714 31.1063 61.4687 29.9998 60.2356C28.8932 59.0024 28.9959 57.1057 30.229 55.9991C31.4622 54.8926 33.3589 54.9952 34.4655 56.2284C35.572 57.4615 35.4694 59.3582 34.2362 60.4648Z" fill="#BA97EC"/>
<path d="M26.2174 67.6446C29.5058 64.6938 34.5638 64.9675 37.5146 68.256C40.4654 71.5444 40.1917 76.6023 36.9032 79.5531C33.6148 82.504 28.5569 82.2303 25.6061 78.9418C22.6552 75.6534 22.9289 70.5955 26.2174 67.6446Z" fill="#237FCA"/>
<path d="M34.5176 84.381C37.3949 81.7991 41.8206 82.0386 44.4026 84.916C46.9846 87.7933 46.7451 92.219 43.8677 94.801C40.9903 97.3829 36.5646 97.1435 33.9826 94.2661C31.4007 91.3887 31.6402 86.963 34.5176 84.381Z" fill="#237FCA"/>
<path d="M47.4363 94.2859C49.9026 92.0728 53.696 92.2781 55.9091 94.7444C58.1223 97.2108 57.917 101.004 55.4506 103.217C52.9843 105.43 49.1909 105.225 46.9778 102.759C44.7646 100.293 44.9699 96.4991 47.4363 94.2859Z" fill="#237FCA"/>
<path d="M61.7215 97.3396C63.7768 95.4953 66.938 95.6664 68.7822 97.7217C70.6265 99.7769 70.4554 102.938 68.4002 104.782C66.3449 106.627 63.1837 106.456 61.3394 104.4C59.4952 102.345 59.6662 99.1838 61.7215 97.3396Z" fill="#237FCA"/>
<path d="M72.9771 97.6718C74.6214 96.1964 77.1503 96.3332 78.6257 97.9775C80.1011 99.6217 79.9643 102.151 78.3201 103.626C76.6758 105.101 74.1469 104.965 72.6715 103.32C71.1961 101.676 71.3329 99.1472 72.9771 97.6718Z" fill="#4DC0E9"/>
<path d="M81.9771 92.6718C83.6213 91.1964 86.1503 91.3333 87.6257 92.9775C89.1011 94.6217 88.9642 97.1507 87.32 98.6261C85.6758 100.101 83.1468 99.9646 81.6714 98.3204C80.196 96.6762 80.3329 94.1472 81.9771 92.6718Z" fill="#4DC0E9"/>
<path d="M89.9771 85.6716C91.6214 84.1961 94.1503 84.333 95.6257 85.9772C97.1012 87.6214 96.9643 90.1504 95.3201 91.6258C93.6759 93.1012 91.1469 92.9644 89.6715 91.3201C88.1961 89.6759 88.3329 87.147 89.9771 85.6716Z" fill="#4DC0E9"/>
<path d="M95.2329 78.0036C96.466 76.897 98.3627 76.9997 99.4693 78.2328C100.576 79.466 100.473 81.3627 99.2401 82.4693C98.0069 83.5759 96.1102 83.4732 95.0036 82.24C93.8971 81.0069 93.9997 79.1102 95.2329 78.0036Z" fill="#4DC0E9"/>
<path d="M88 11C88 17.0751 83.0751 22 77 22C70.9249 22 66 17.0751 66 11C66 4.92487 70.9249 0 77 0C83.0751 0 88 4.92487 88 11Z" fill="#7951B4"/>
<path d="M62 10C62 15.5228 57.5228 20 52 20C46.4772 20 42 15.5228 42 10C42 4.47715 46.4772 0 52 0C57.5228 0 62 4.47715 62 10Z" fill="#7951B4"/>
<path d="M38 20C38 24.9706 33.9706 29 29 29C24.0294 29 20 24.9706 20 20C20 15.0294 24.0294 11 29 11C33.9706 11 38 15.0294 38 20Z" fill="#7951B4"/>
<path d="M22 37C22 41.4183 18.4183 45 14 45C9.58172 45 6 41.4183 6 37C6 32.5817 9.58172 29 14 29C18.4183 29 22 32.5817 22 37Z" fill="#BA97EC"/>
<path d="M14 56C14 59.866 10.866 63 7 63C3.13401 63 0 59.866 0 56C0 52.134 3.13401 49 7 49C10.866 49 14 52.134 14 56Z" fill="#BA97EC"/>
<path d="M12 73C12 76.3137 9.31371 79 6 79C2.68629 79 0 76.3137 0 73C0 69.6863 2.68629 67 6 67C9.31371 67 12 69.6863 12 73Z" fill="#BA97EC"/>
<path d="M14 88C14 90.7614 11.7614 93 9 93C6.23858 93 4 90.7614 4 88C4 85.2386 6.23858 83 9 83C11.7614 83 14 85.2386 14 88Z" fill="#BA97EC"/>
<path d="M19 100C19 102.209 17.2091 104 15 104C12.7909 104 11 102.209 11 100C11 97.7909 12.7909 96 15 96C17.2091 96 19 97.7909 19 100Z" fill="#BA97EC"/>
<path d="M15 116C15 109.373 20.3726 104 27 104C33.6274 104 39 109.373 39 116C39 122.627 33.6274 128 27 128C20.3726 128 15 122.627 15 116Z" fill="#237FCA"/>
<path d="M43 125C43 118.925 47.9249 114 54 114C60.0751 114 65 118.925 65 125C65 131.075 60.0751 136 54 136C47.9249 136 43 131.075 43 125Z" fill="#237FCA"/>
<path d="M69 126C69 120.477 73.4771 116 79 116C84.5229 116 89 120.477 89 126C89 131.523 84.5229 136 79 136C73.4771 136 69 131.523 69 126Z" fill="#237FCA"/>
<path d="M93 116C93 111.029 97.0294 107 102 107C106.971 107 111 111.029 111 116C111 120.971 106.971 125 102 125C97.0294 125 93 120.971 93 116Z" fill="#237FCA"/>
<path d="M109 99C109 94.5817 112.582 91 117 91C121.418 91 125 94.5817 125 99C125 103.418 121.418 107 117 107C112.582 107 109 103.418 109 99Z" fill="#4DC0E9"/>
<path d="M117 80C117 76.134 120.134 73 124 73C127.866 73 131 76.134 131 80C131 83.866 127.866 87 124 87C120.134 87 117 83.866 117 80Z" fill="#4DC0E9"/>
<path d="M119 63C119 59.6863 121.686 57 125 57C128.314 57 131 59.6863 131 63C131 66.3137 128.314 69 125 69C121.686 69 119 66.3137 119 63Z" fill="#4DC0E9"/>
<path d="M117 48C117 45.2386 119.239 43 122 43C124.761 43 127 45.2386 127 48C127 50.7614 124.761 53 122 53C119.239 53 117 50.7614 117 48Z" fill="#4DC0E9"/>
<path d="M112 36C112 33.7909 113.791 32 116 32C118.209 32 120 33.7909 120 36C120 38.2091 118.209 40 116 40C113.791 40 112 38.2091 112 36Z" fill="#4DC0E9"/>
<path d="M192.535 41.2031L216.148 93H199.543L197.029 86.1445H180.881L178.367 93H161.762L185.375 41.2031H192.535ZM188.955 64.207L185.07 74.7188H192.84L188.955 64.207Z" fill="#31125F"/>
<path d="M269.956 41.9648L246.343 93.7617H239.183L215.57 41.9648H232.175L242.763 69.9961L253.351 41.9648H269.956Z" fill="#31125F"/>
<path d="M319.879 61.8457V72.5098H299.618V80.8125H322.545V93H285.373V41.9648H322.545V53.7715H299.618V61.8457H319.879Z" fill="#31125F"/>
<path d="M365.156 41.9648C367.746 41.9648 370.259 42.3203 372.697 43.0312C375.185 43.7422 377.42 44.834 379.4 46.3066C381.38 47.7793 382.955 49.6328 384.123 51.8672C385.341 54.1016 385.951 56.7168 385.951 59.7129C385.951 63.5215 384.859 66.6699 382.675 69.1582C380.543 71.6465 377.8 73.3477 374.449 74.2617L388.541 93H371.173L357.539 72.7383V93H343.295V41.9648H365.156ZM357.539 55.2949V64.8164C358.402 65.1211 359.316 65.375 360.281 65.5781C361.296 65.7812 362.363 65.8828 363.48 65.8828C365.714 65.8828 367.568 65.4512 369.041 64.5879C370.564 63.6738 371.326 62.3027 371.326 60.4746C371.326 58.3926 370.564 57.0215 369.041 56.3613C367.568 55.6504 365.714 55.2949 363.48 55.2949H357.539Z" fill="#31125F"/>
<path d="M447.071 41.9648L427.114 75.4043V93H412.87V75.4043L392.913 41.9648H409.518L420.03 60.8555L430.466 41.9648H447.071Z" fill="#31125F"/>
</svg>
