<svg width="156" height="29" viewBox="0 0 156 29" fill="none" xmlns="http://www.w3.org/2000/svg">
<g opacity="0.7">
<path d="M150.952 21.217C149.943 21.217 149.073 20.9942 148.341 20.5488C147.613 20.0988 147.052 19.4715 146.657 18.667C146.266 17.8579 146.07 16.917 146.07 15.8442C146.07 14.7715 146.266 13.8261 146.657 13.0079C147.052 12.1852 147.602 11.5442 148.307 11.0852C149.016 10.6215 149.843 10.3897 150.788 10.3897C151.334 10.3897 151.873 10.4806 152.404 10.6624C152.936 10.8442 153.42 11.1397 153.857 11.5488C154.293 11.9533 154.641 12.4897 154.9 13.1579C155.159 13.8261 155.288 14.6488 155.288 15.6261V16.3079H147.216V14.917H153.652C153.652 14.3261 153.534 13.7988 153.298 13.3352C153.066 12.8715 152.734 12.5056 152.302 12.2374C151.875 11.9692 151.37 11.8352 150.788 11.8352C150.148 11.8352 149.593 11.9942 149.125 12.3124C148.661 12.6261 148.304 13.0352 148.054 13.5397C147.804 14.0442 147.679 14.5852 147.679 15.1624V16.0897C147.679 16.8806 147.816 17.5511 148.088 18.1011C148.366 18.6465 148.75 19.0624 149.241 19.3488C149.732 19.6306 150.302 19.7715 150.952 19.7715C151.375 19.7715 151.757 19.7124 152.098 19.5942C152.443 19.4715 152.741 19.2897 152.991 19.0488C153.241 18.8033 153.434 18.4988 153.57 18.1352L155.125 18.5715C154.961 19.0988 154.686 19.5624 154.3 19.9624C153.913 20.3579 153.436 20.667 152.868 20.8897C152.3 21.1079 151.661 21.217 150.952 21.217Z" fill="#212121"/>
<path d="M143.756 12.8715L142.311 13.2806C142.22 13.0397 142.086 12.8056 141.908 12.5783C141.736 12.3465 141.499 12.1556 141.199 12.0056C140.899 11.8556 140.515 11.7806 140.047 11.7806C139.406 11.7806 138.872 11.9283 138.445 12.2238C138.022 12.5147 137.811 12.8852 137.811 13.3352C137.811 13.7352 137.956 14.0511 138.247 14.2829C138.538 14.5147 138.992 14.7079 139.611 14.8624L141.165 15.2442C142.102 15.4715 142.799 15.8192 143.258 16.2874C143.717 16.7511 143.947 17.3488 143.947 18.0806C143.947 18.6806 143.774 19.217 143.429 19.6897C143.088 20.1624 142.611 20.5352 141.997 20.8079C141.383 21.0806 140.67 21.217 139.856 21.217C138.788 21.217 137.904 20.9852 137.204 20.5215C136.504 20.0579 136.061 19.3806 135.874 18.4897L137.402 18.1079C137.547 18.6715 137.822 19.0942 138.227 19.3761C138.636 19.6579 139.17 19.7988 139.829 19.7988C140.579 19.7988 141.174 19.6397 141.615 19.3215C142.061 18.9988 142.283 18.6124 142.283 18.1624C142.283 17.7988 142.156 17.4942 141.902 17.2488C141.647 16.9988 141.256 16.8124 140.729 16.6897L138.983 16.2806C138.024 16.0533 137.32 15.7011 136.87 15.2238C136.424 14.742 136.202 14.1397 136.202 13.417C136.202 12.8261 136.367 12.3033 136.699 11.8488C137.036 11.3942 137.492 11.0374 138.07 10.7783C138.652 10.5192 139.311 10.3897 140.047 10.3897C141.083 10.3897 141.897 10.617 142.488 11.0715C143.083 11.5261 143.506 12.1261 143.756 12.8715Z" fill="#212121"/>
<path d="M129.002 20.9988V10.5261H130.557V12.1079H130.666C130.857 11.5897 131.202 11.1692 131.702 10.8465C132.202 10.5238 132.766 10.3624 133.393 10.3624C133.511 10.3624 133.659 10.3647 133.836 10.3692C134.014 10.3738 134.148 10.3806 134.239 10.3897V12.0261C134.184 12.0124 134.059 11.992 133.864 11.9647C133.673 11.9329 133.47 11.917 133.257 11.917C132.748 11.917 132.293 12.0238 131.893 12.2374C131.498 12.4465 131.184 12.7374 130.952 13.1102C130.725 13.4783 130.611 13.8988 130.611 14.3715V20.9988H129.002Z" fill="#212121"/>
<path d="M122.026 21.217C121.017 21.217 120.147 20.9942 119.415 20.5488C118.687 20.0988 118.126 19.4715 117.731 18.667C117.34 17.8579 117.144 16.917 117.144 15.8442C117.144 14.7715 117.34 13.8261 117.731 13.0079C118.126 12.1852 118.676 11.5442 119.381 11.0852C120.09 10.6215 120.917 10.3897 121.862 10.3897C122.408 10.3897 122.947 10.4806 123.478 10.6624C124.01 10.8442 124.494 11.1397 124.931 11.5488C125.367 11.9533 125.715 12.4897 125.974 13.1579C126.233 13.8261 126.362 14.6488 126.362 15.6261V16.3079H118.29V14.917H124.726C124.726 14.3261 124.608 13.7988 124.372 13.3352C124.14 12.8715 123.808 12.5056 123.376 12.2374C122.949 11.9692 122.444 11.8352 121.862 11.8352C121.222 11.8352 120.667 11.9942 120.199 12.3124C119.735 12.6261 119.378 13.0352 119.128 13.5397C118.878 14.0442 118.753 14.5852 118.753 15.1624V16.0897C118.753 16.8806 118.89 17.5511 119.162 18.1011C119.44 18.6465 119.824 19.0624 120.315 19.3488C120.806 19.6306 121.376 19.7715 122.026 19.7715C122.449 19.7715 122.831 19.7124 123.172 19.5942C123.517 19.4715 123.815 19.2897 124.065 19.0488C124.315 18.8033 124.508 18.4988 124.644 18.1352L126.199 18.5715C126.035 19.0988 125.76 19.5624 125.374 19.9624C124.987 20.3579 124.51 20.667 123.942 20.8897C123.374 21.1079 122.735 21.217 122.026 21.217Z" fill="#212121"/>
<path d="M106.234 7.03516L110.38 18.7897H110.543L114.689 7.03516H116.461L111.334 20.9988H109.589L104.461 7.03516H106.234Z" fill="#212121"/>
<path d="M97.7785 25.1442C97.0012 25.1442 96.333 25.0442 95.7739 24.8442C95.2148 24.6488 94.7489 24.3897 94.3762 24.067C94.008 23.7488 93.7148 23.4079 93.4966 23.0442L94.7785 22.1442C94.9239 22.3352 95.108 22.5533 95.3307 22.7988C95.5535 23.0488 95.858 23.2647 96.2444 23.4465C96.6353 23.6329 97.1466 23.7261 97.7785 23.7261C98.6239 23.7261 99.3216 23.5215 99.8716 23.1124C100.422 22.7033 100.697 22.0624 100.697 21.1897V19.0624H100.56C100.442 19.2533 100.274 19.4897 100.056 19.7715C99.8421 20.0488 99.533 20.2965 99.1285 20.5147C98.7285 20.7283 98.1876 20.8352 97.5057 20.8352C96.6603 20.8352 95.9012 20.6352 95.2285 20.2352C94.5603 19.8352 94.0307 19.2533 93.6398 18.4897C93.2535 17.7261 93.0603 16.7988 93.0603 15.7079C93.0603 14.6352 93.2489 13.7011 93.6262 12.9056C94.0035 12.1056 94.5285 11.4874 95.2012 11.0511C95.8739 10.6102 96.6512 10.3897 97.533 10.3897C98.2148 10.3897 98.7557 10.5033 99.1557 10.7306C99.5603 10.9533 99.8694 11.2079 100.083 11.4942C100.301 11.7761 100.469 12.0079 100.588 12.1897H100.751V10.5261H102.306V21.2988C102.306 22.1988 102.101 22.9306 101.692 23.4942C101.288 24.0624 100.742 24.4783 100.056 24.742C99.3739 25.0102 98.6148 25.1442 97.7785 25.1442ZM97.7239 19.3897C98.3694 19.3897 98.9148 19.242 99.3603 18.9465C99.8057 18.6511 100.144 18.2261 100.376 17.6715C100.608 17.117 100.724 16.4533 100.724 15.6806C100.724 14.9261 100.61 14.2602 100.383 13.6829C100.156 13.1056 99.8194 12.6533 99.3739 12.3261C98.9285 11.9988 98.3785 11.8352 97.7239 11.8352C97.0421 11.8352 96.4739 12.0079 96.0194 12.3533C95.5694 12.6988 95.2307 13.1624 95.0035 13.7442C94.7807 14.3261 94.6694 14.9715 94.6694 15.6806C94.6694 16.4079 94.783 17.0511 95.0103 17.6102C95.2421 18.1647 95.583 18.6011 96.033 18.9192C96.4876 19.2329 97.0512 19.3897 97.7239 19.3897Z" fill="#212121"/>
<path d="M86.5751 21.217C85.566 21.217 84.6956 20.9942 83.9637 20.5488C83.2365 20.0988 82.6751 19.4715 82.2796 18.667C81.8887 17.8579 81.6933 16.917 81.6933 15.8442C81.6933 14.7715 81.8887 13.8261 82.2796 13.0079C82.6751 12.1852 83.2251 11.5442 83.9296 11.0852C84.6387 10.6215 85.466 10.3897 86.4115 10.3897C86.9569 10.3897 87.4956 10.4806 88.0274 10.6624C88.5592 10.8442 89.0433 11.1397 89.4796 11.5488C89.916 11.9533 90.2637 12.4897 90.5228 13.1579C90.7819 13.8261 90.9115 14.6488 90.9115 15.6261V16.3079H82.8387V14.917H89.2751C89.2751 14.3261 89.1569 13.7988 88.9206 13.3352C88.6887 12.8715 88.3569 12.5056 87.9251 12.2374C87.4978 11.9692 86.9933 11.8352 86.4115 11.8352C85.7706 11.8352 85.216 11.9942 84.7478 12.3124C84.2842 12.6261 83.9274 13.0352 83.6774 13.5397C83.4274 14.0442 83.3024 14.5852 83.3024 15.1624V16.0897C83.3024 16.8806 83.4387 17.5511 83.7115 18.1011C83.9887 18.6465 84.3728 19.0624 84.8637 19.3488C85.3546 19.6306 85.9251 19.7715 86.5751 19.7715C86.9978 19.7715 87.3796 19.7124 87.7206 19.5942C88.066 19.4715 88.3637 19.2897 88.6137 19.0488C88.8637 18.8033 89.0569 18.4988 89.1933 18.1352L90.7478 18.5715C90.5842 19.0988 90.3092 19.5624 89.9228 19.9624C89.5365 20.3579 89.0592 20.667 88.491 20.8897C87.9228 21.1079 87.2842 21.217 86.5751 21.217Z" fill="#212121"/>
<path d="M70.0416 20.9988V7.03516H74.7598C75.8507 7.03516 76.7462 7.22152 77.4462 7.59425C78.1462 7.96243 78.6644 8.46925 79.0007 9.1147C79.3371 9.76016 79.5053 10.4942 79.5053 11.317C79.5053 12.1397 79.3371 12.8692 79.0007 13.5056C78.6644 14.142 78.1484 14.642 77.453 15.0056C76.7575 15.3647 75.8689 15.5442 74.7871 15.5442H70.9689V14.017H74.7325C75.478 14.017 76.078 13.9079 76.5325 13.6897C76.9916 13.4715 77.3234 13.1624 77.528 12.7624C77.7371 12.3579 77.8416 11.8761 77.8416 11.317C77.8416 10.7579 77.7371 10.2692 77.528 9.85107C77.3189 9.43288 76.9848 9.11016 76.5257 8.88288C76.0666 8.65107 75.4598 8.53516 74.7053 8.53516H71.7325V20.9988H70.0416ZM76.6144 14.7261L80.0507 20.9988H78.0871L74.7053 14.7261H76.6144Z" fill="#212121"/>
<path d="M54.3883 24.9261C54.1156 24.9261 53.8724 24.9033 53.6588 24.8579C53.4451 24.817 53.2974 24.7761 53.2156 24.7352L53.6247 23.317C54.0156 23.417 54.361 23.4533 54.661 23.4261C54.961 23.3988 55.2269 23.2647 55.4588 23.0238C55.6951 22.7874 55.911 22.4033 56.1065 21.8715L56.4065 21.0533L52.5338 10.5261H54.2792L57.1701 18.8715H57.2792L60.1701 10.5261H61.9156L57.4701 22.5261C57.2701 23.067 57.0224 23.5147 56.7269 23.8692C56.4315 24.2283 56.0883 24.4942 55.6974 24.667C55.311 24.8397 54.8747 24.9261 54.3883 24.9261Z" fill="#212121"/>
<path d="M40.8906 20.9988V7.03516H45.7724C46.7452 7.03516 47.5474 7.20334 48.1793 7.5397C48.8111 7.87152 49.2815 8.31925 49.5906 8.88288C49.8997 9.44197 50.0543 10.0624 50.0543 10.7442C50.0543 11.3442 49.9474 11.8397 49.7338 12.2306C49.5247 12.6215 49.2474 12.9306 48.902 13.1579C48.5611 13.3852 48.1906 13.5533 47.7906 13.6624V13.7988C48.2179 13.8261 48.6474 13.9761 49.0793 14.2488C49.5111 14.5215 49.8724 14.9124 50.1634 15.4215C50.4543 15.9306 50.5997 16.5533 50.5997 17.2897C50.5997 17.9897 50.4406 18.6192 50.1224 19.1783C49.8043 19.7374 49.302 20.1806 48.6156 20.5079C47.9293 20.8352 47.0361 20.9988 45.9361 20.9988H40.8906ZM42.5815 19.4988H45.9361C47.0406 19.4988 47.8247 19.2852 48.2884 18.8579C48.7565 18.4261 48.9906 17.9033 48.9906 17.2897C48.9906 16.817 48.8702 16.3806 48.6293 15.9806C48.3884 15.5761 48.0452 15.2533 47.5997 15.0124C47.1543 14.767 46.627 14.6442 46.0179 14.6442H42.5815V19.4988ZM42.5815 13.1715H45.7179C46.227 13.1715 46.6861 13.0715 47.0952 12.8715C47.5088 12.6715 47.8361 12.3897 48.077 12.0261C48.3224 11.6624 48.4452 11.2352 48.4452 10.7442C48.4452 10.1306 48.2315 9.61016 47.8043 9.18288C47.377 8.75107 46.6997 8.53516 45.7724 8.53516H42.5815V13.1715Z" fill="#212121"/>
</g>
<path fill-rule="evenodd" clip-rule="evenodd" d="M5.67732 9.11001C5.59879 8.41269 5.55854 7.70349 5.55854 6.98504L5.55986 6.76647C6.63422 6.30292 7.74883 5.91332 8.89644 5.60428C9.96157 5.31703 11.0557 5.09912 12.173 4.95583C13.1187 4.83433 14.0808 4.76631 15.0562 4.75377L15.3644 4.75245C16.4453 4.75245 17.5105 4.82178 18.5558 4.95583C19.4619 5.07205 20.3528 5.23779 21.2259 5.4491L25.0547 1.62509C24.8119 1.54123 24.5677 1.46001 24.3222 1.38143C23.762 1.20379 23.1944 1.04201 22.6196 0.896738C20.2987 0.311019 17.8675 0 15.3644 0C12.8606 0 10.4301 0.311019 8.10849 0.896738C7.53436 1.04135 6.96616 1.20313 6.40588 1.38143C5.97033 1.5201 5.5394 1.66801 5.11309 1.82583C3.69622 2.35014 2.33083 2.97944 1.02616 3.70515C0.994483 3.92967 0.966766 4.15484 0.941689 4.38134C0.847979 5.23647 0.799805 6.10482 0.799805 6.98504C0.799805 7.79792 0.84072 8.60089 0.920571 9.39197C1.16804 11.8286 1.78574 14.1563 2.71689 16.3163L6.41578 12.6223C6.06206 11.4932 5.81261 10.3191 5.676 9.11001H5.67732Z" fill="url(#paint0_linear_10748_74199)"/>
<path fill-rule="evenodd" clip-rule="evenodd" d="M2.40802 15.5634C2.50677 15.8162 2.60976 16.067 2.71689 16.3155L3.07307 15.9598C2.84926 15.8326 2.62753 15.7005 2.40802 15.5634ZM9.04581 0.675781C8.73148 0.744206 8.41901 0.817633 8.10849 0.895973C7.53436 1.04059 6.96616 1.20237 6.40588 1.38066C5.97033 1.51933 5.5394 1.66725 5.11309 1.82507C3.69622 2.34937 2.33083 2.97868 1.02616 3.70439C0.994483 3.9289 0.966766 4.15408 0.941689 4.38057C0.847979 5.23571 0.799805 6.10405 0.799805 6.98428C0.799805 7.60504 0.823666 8.22003 0.870506 8.82836C1.30709 8.12615 1.78227 7.4409 2.29584 6.77591C2.87867 6.02088 3.51097 5.29201 4.19179 4.59301L4.40878 4.37402C5.17313 3.60919 5.97529 2.9046 6.80917 2.25977C7.53199 1.70086 8.27908 1.1877 9.04577 0.719372L9.04581 0.675781Z" fill="url(#paint1_linear_10748_74199)"/>
<path fill-rule="evenodd" clip-rule="evenodd" d="M29.7017 3.70506C28.3976 2.97935 27.0323 2.35005 25.6154 1.82574C25.4293 1.75707 25.2425 1.69037 25.0545 1.625L21.2256 5.44901L15.011 11.6555L11.198 7.84669L7.8957 11.1444L7.83301 11.2072L7.95509 11.3293L15.011 18.3764L21.2143 12.1811L25.1264 8.27459L29.7017 3.70506Z" fill="url(#paint2_linear_10748_74199)"/>
<path fill-rule="evenodd" clip-rule="evenodd" d="M25.1259 8.27656C25.1074 8.55721 25.0824 8.83521 25.0514 9.11189C24.3525 15.3382 20.6199 20.648 15.3643 23.5323C11.3024 21.303 8.14997 17.6256 6.60508 13.1961C6.53909 13.0059 6.47706 12.8157 6.41569 12.6242L2.7168 16.3188C2.79335 16.4951 2.87122 16.6701 2.95173 16.8444C4.5217 20.2538 6.88093 23.2259 9.79583 25.5272C11.4819 26.8571 13.3522 27.9638 15.3643 28.7998C17.3757 27.9638 19.2466 26.8571 20.9321 25.5272C25.8195 21.6689 29.1449 15.9246 29.8074 9.39451C29.8873 8.60343 29.9282 7.7998 29.9282 6.98693C29.9282 6.1067 29.88 5.23769 29.7863 4.38322C29.7613 4.15672 29.7335 3.93155 29.7019 3.70703L25.1266 8.27656H25.1259Z" fill="url(#paint3_linear_10748_74199)"/>
<path opacity="0.1" d="M15.3643 23.5334C17.043 24.0821 29.0167 15.0804 29.7019 3.70807C29.7335 3.93259 29.7613 4.15776 29.7863 4.38426C29.88 5.23873 29.9282 6.10774 29.9282 6.98797C29.9282 7.80084 29.8873 8.60447 29.8074 9.39556C29.1449 15.9256 25.8195 21.6699 20.9321 25.5282C19.2466 26.8582 17.3757 27.9649 15.3643 28.8009C13.3522 27.9649 11.4819 26.8582 9.79583 25.5282C6.88093 23.227 4.5217 20.2548 2.95173 16.8455C2.87122 16.6711 2.79335 16.4962 2.7168 16.3198L6.41569 12.6253C6.47706 12.8168 6.53909 13.0069 6.60508 13.1971C8.14997 17.6267 11.3024 21.3041 15.3643 23.5334Z" fill="#841379"/>
<defs>
<linearGradient id="paint0_linear_10748_74199" x1="18.3736" y1="8.10432" x2="12.7661" y2="-0.0944583" gradientUnits="userSpaceOnUse">
<stop stop-color="#B45EFF"/>
<stop offset="1" stop-color="#31125F"/>
</linearGradient>
<linearGradient id="paint1_linear_10748_74199" x1="7.2072" y1="7.19765" x2="-0.459202" y2="4.99094" gradientUnits="userSpaceOnUse">
<stop stop-color="#B764FF"/>
<stop offset="1" stop-color="#31125F"/>
</linearGradient>
<linearGradient id="paint2_linear_10748_74199" x1="32.1767" y1="-0.558871" x2="8.68872" y2="2.26741" gradientUnits="userSpaceOnUse">
<stop offset="0.301642" stop-color="#15C2FF"/>
<stop offset="0.830713" stop-color="#0080E8"/>
<stop offset="1" stop-color="#364DCC"/>
</linearGradient>
<linearGradient id="paint3_linear_10748_74199" x1="33.0079" y1="0.435702" x2="3.65169" y2="3.36998" gradientUnits="userSpaceOnUse">
<stop offset="0.301642" stop-color="#15C2FF"/>
<stop offset="0.830713" stop-color="#0080E8"/>
<stop offset="1" stop-color="#364DCC"/>
</linearGradient>
</defs>
</svg>
