<svg width="308" height="145" viewBox="0 0 308 145" fill="none" xmlns="http://www.w3.org/2000/svg">
<path fill-rule="evenodd" clip-rule="evenodd" d="M204.698 144.5H79.3585C74.0336 144.5 69.717 140.605 69.717 135.8C69.717 130.995 74.0336 127.1 79.3585 127.1H25.6415C20.3167 127.1 16 123.205 16 118.4C16 113.595 20.3167 109.7 25.6415 109.7H80.7358C86.0607 109.7 90.3774 105.805 90.3774 101C90.3774 96.1951 86.0607 92.3 80.7358 92.3H46.3019C40.977 92.3 36.6604 88.4049 36.6604 83.6C36.6604 78.7951 40.977 74.9 46.3019 74.9H101.396C96.0714 74.9 91.7547 71.0049 91.7547 66.2C91.7547 61.3951 96.0714 57.5 101.396 57.5H179.906C185.231 57.5 189.547 61.3951 189.547 66.2C189.547 71.0049 185.231 74.9 179.906 74.9H268.057C273.381 74.9 277.698 78.7951 277.698 83.6C277.698 88.4049 273.381 92.3 268.057 92.3H298.358C303.683 92.3 308 96.1951 308 101C308 105.805 303.683 109.7 298.358 109.7H272.189C266.864 109.7 262.547 113.595 262.547 118.4C262.547 123.205 266.864 127.1 272.189 127.1H280.453C285.778 127.1 290.094 130.995 290.094 135.8C290.094 140.605 285.778 144.5 280.453 144.5H208.83C208.662 144.5 208.494 144.496 208.327 144.488C207.288 144.44 206.24 144.44 205.201 144.488C205.034 144.496 204.867 144.5 204.698 144.5Z" fill="#F1F3F8"/>
<path d="M117.063 84.873L100.185 94.6726C98.1775 95.8379 95.6138 95.151 94.4583 93.1383C93.3004 91.1214 93.9962 88.5396 96.0109 87.3778L109.083 79.8397L112.37 77.9312C116.37 75.6092 121.478 76.9781 123.781 80.9888C126.084 84.9994 124.708 90.1331 120.709 92.4552L117.471 94.3349L105.201 101.459C98.7973 105.354 91.0065 104.12 87.078 97.5894C83.1976 91.139 86.1125 83.8081 92.8284 79.9089L105.051 72.8113" stroke="#31125F" stroke-width="4" stroke-linecap="round" stroke-linejoin="round"/>
<path d="M97.4132 26.3862C96.6673 26.5644 96.0228 27.0336 95.6401 27.6965L85.3685 45.4874C83.8674 48.0874 84.766 51.4165 87.3757 52.9232L115.727 69.2919C118.336 70.7986 121.669 69.9122 123.17 67.3122L135.401 46.1272C136.902 43.5273 136.004 40.1982 133.394 38.6914L108.347 24.2294C107.742 23.8806 107.029 23.7749 106.353 23.9416C105.103 24.2497 103.035 24.7756 101.823 25.171C100.278 25.6754 98.5342 26.1183 97.4132 26.3862Z" fill="white"/>
<path d="M94.8819 29.0096L101.97 33.1018C103.275 33.8551 104.941 33.4119 105.691 32.1119L109.768 25.0503M96.8577 47.4122L99.5758 42.7044M103.946 51.5043L112.1 37.381M111.033 55.5964L119.187 41.4731M101.823 25.171C100.278 25.6754 98.5342 26.1183 97.4132 26.3862C96.6673 26.5644 96.0228 27.0336 95.6401 27.6965L85.3685 45.4874C83.8674 48.0874 84.766 51.4165 87.3757 52.9232L115.727 69.2919C118.336 70.7986 121.669 69.9122 123.17 67.3122L135.401 46.1272C136.902 43.5273 136.004 40.1982 133.394 38.6914L108.347 24.2294C107.742 23.8806 107.029 23.7749 106.353 23.9416C105.103 24.2497 103.035 24.7756 101.823 25.171Z" stroke="#31125F" stroke-width="4" stroke-linecap="round" stroke-linejoin="round"/>
<path d="M113.998 5.53381C113.243 5.39509 112.464 5.56344 111.846 6.01485L95.2555 18.13C92.8309 19.9005 92.306 23.3086 94.0831 25.7422L113.389 52.1804C115.166 54.614 118.572 55.1515 120.997 53.3809L140.753 38.9546C143.177 37.1841 143.702 33.776 141.925 31.3424L124.869 7.98419C124.458 7.42083 123.848 7.03565 123.162 6.91454C121.894 6.69059 119.79 6.33499 118.522 6.2065C116.905 6.04257 115.131 5.74229 113.998 5.53381Z" fill="white"/>
<path d="M110.621 6.90905L115.448 13.5186C116.337 14.7354 118.04 15.0041 119.252 14.1189L125.837 9.31007M104.984 24.5379L109.374 21.3321M109.811 31.1475L122.981 21.5299M114.637 37.757L127.808 28.1394M118.522 6.2065C116.905 6.04257 115.131 5.74229 113.998 5.53381C113.243 5.39509 112.464 5.56344 111.846 6.01485L95.2555 18.13C92.8309 19.9005 92.306 23.3086 94.0831 25.7422L113.389 52.1804C115.166 54.614 118.572 55.1515 120.997 53.3809L140.753 38.9546C143.177 37.1841 143.702 33.776 141.925 31.3424L124.869 7.98419C124.458 7.42083 123.848 7.03565 123.162 6.91454C121.894 6.69059 119.79 6.33499 118.522 6.2065Z" stroke="#31125F" stroke-width="4" stroke-linecap="round" stroke-linejoin="round"/>
<path d="M114.814 127.786V35.6016C114.814 33.3924 116.605 31.6016 118.814 31.6016H159.776C160.837 31.6016 161.854 32.023 162.604 32.7731L173.581 43.7495C174.331 44.4996 175.348 44.9211 176.409 44.9211H224.03C226.239 44.9211 228.03 46.7119 228.03 48.9211V71.5601H236.2C238.734 71.5601 240.522 74.042 239.721 76.4454L222.216 128.96C221.711 130.476 220.293 131.498 218.695 131.498H134.794H128.134H118.526C116.476 131.498 114.814 129.836 114.814 127.786Z" fill="#FFDDAB"/>
<path d="M228.03 71.5601V48.9211C228.03 46.7119 226.239 44.9211 224.03 44.9211H176.409C175.348 44.9211 174.331 44.4996 173.581 43.7495L162.604 32.7731C161.854 32.023 160.837 31.6016 159.776 31.6016H118.814C116.605 31.6016 114.814 33.3924 114.814 35.6016V127.786C114.814 129.836 116.476 131.498 118.526 131.498H134.794V125.511C134.794 125.066 134.874 124.625 135.03 124.208L153.87 73.9684C154.413 72.5198 155.798 71.5601 157.345 71.5601H236.2C238.734 71.5601 240.522 74.042 239.721 76.4454L222.216 128.96C221.711 130.476 220.293 131.498 218.695 131.498H128.134" stroke="#31125F" stroke-width="4" stroke-linecap="round" stroke-linejoin="round"/>
<path d="M187.181 101.738C190.944 101.738 193.995 98.687 193.995 94.9236C193.995 91.1601 190.944 88.1094 187.181 88.1094C183.417 88.1094 180.366 91.1601 180.366 94.9236C180.366 98.687 183.417 101.738 187.181 101.738Z" stroke="#31125F" stroke-width="4" stroke-linecap="round" stroke-linejoin="round"/>
<path d="M198.883 117.331C198.883 112.067 193.648 107.797 187.185 107.797C180.721 107.797 175.486 112.067 175.486 117.331" stroke="#31125F" stroke-width="4" stroke-linecap="round" stroke-linejoin="round"/>
</svg>
