<svg width="292" height="105" viewBox="0 0 292 105" fill="none" xmlns="http://www.w3.org/2000/svg">
<path fill-rule="evenodd" clip-rule="evenodd" d="M188.698 105H63.3585C58.0336 105 53.717 101.105 53.717 96.3C53.717 91.4951 58.0336 87.6 63.3585 87.6H9.64151C4.31665 87.6 0 83.7049 0 78.9C0 74.0951 4.31665 70.2 9.64151 70.2H64.7358C70.0607 70.2 74.3774 66.3049 74.3774 61.5C74.3774 56.6951 70.0607 52.8 64.7358 52.8H30.3019C24.977 52.8 20.6604 48.9049 20.6604 44.1C20.6604 39.2951 24.977 35.4 30.3019 35.4H85.3962C80.0714 35.4 75.7547 31.5049 75.7547 26.7C75.7547 21.8951 80.0714 18 85.3962 18H163.906C169.231 18 173.547 21.8951 173.547 26.7C173.547 31.5049 169.231 35.4 163.906 35.4H252.057C257.381 35.4 261.698 39.2951 261.698 44.1C261.698 48.9049 257.381 52.8 252.057 52.8H282.358C287.683 52.8 292 56.6951 292 61.5C292 66.3049 287.683 70.2 282.358 70.2H256.189C250.864 70.2 246.547 74.0951 246.547 78.9C246.547 83.7049 250.864 87.6 256.189 87.6H264.453C269.778 87.6 274.094 91.4951 274.094 96.3C274.094 101.105 269.778 105 264.453 105H192.83C192.662 105 192.494 104.996 192.327 104.988C191.288 104.94 190.24 104.94 189.201 104.988C189.034 104.996 188.867 105 188.698 105Z" fill="#F1F3F8"/>
<path d="M121 7V75.4299C121 76.9926 122.712 77.9516 124.045 77.1355L144.955 64.3293C145.596 63.9368 146.404 63.9368 147.045 64.3293L167.955 77.1355C169.288 77.9516 171 76.9926 171 75.4299V7C171 5.89543 170.105 5 169 5H123C121.895 5 121 5.89543 121 7Z" fill="#4690DC"/>
<path fill-rule="evenodd" clip-rule="evenodd" d="M116 75.4299V7C116 3.134 119.134 0 123 0H169C172.866 0 176 3.13401 176 7V75.4299C176 80.8994 170.008 84.2559 165.344 81.3994L146 69.5528L126.656 81.3994M116 75.4299C116 80.8994 121.992 84.2559 126.656 81.3994L116 75.4299ZM121 75.4299V7C121 5.89543 121.895 5 123 5H169C170.105 5 171 5.89543 171 7V75.4299C171 76.9926 169.288 77.9516 167.955 77.1355L147.045 64.3293C146.404 63.9368 145.596 63.9368 144.955 64.3293L124.045 77.1355C122.712 77.9516 121 76.9926 121 75.4299Z" fill="#31125F"/>
<path d="M143.539 42.0001C143.539 43.3808 144.658 44.5001 146.039 44.5001C147.42 44.5001 148.539 43.3808 148.539 42.0001V35.6876H155.688C157.068 35.6876 158.188 34.5683 158.188 33.1876C158.188 31.8069 157.068 30.6876 155.688 30.6876H148.539V24C148.539 22.6193 147.42 21.5 146.039 21.5C144.658 21.5 143.539 22.6193 143.539 24V30.6876H136C134.619 30.6876 133.5 31.8069 133.5 33.1876C133.5 34.5683 134.619 35.6876 136 35.6876H143.539V42.0001Z" fill="#31125F"/>
</svg>
