<svg width="25" height="24" viewBox="0 0 25 24" fill="none" xmlns="http://www.w3.org/2000/svg">
<path d="M13.6426 10.5674L20.4103 17.3672C21.1647 18.1189 21.1647 19.3362 20.4103 20.087C20.0479 20.4475 19.5575 20.6498 19.0463 20.6498C18.5351 20.6498 18.0448 20.4475 17.6823 20.087L10.8926 13.3174" stroke="#3F4159" stroke-width="2" stroke-linecap="round" stroke-linejoin="round"/>
<path d="M7.22656 9.65039L10.8932 13.3171" stroke="#3F4159" stroke-width="2" stroke-linecap="round" stroke-linejoin="round"/>
<path d="M13.6432 10.5671L9.97656 6.90039" stroke="#3F4159" stroke-width="2" stroke-linecap="round" stroke-linejoin="round"/>
<path d="M4.47656 20.6504H10.8932" stroke="#3F4159" stroke-width="2" stroke-linecap="round" stroke-linejoin="round"/>
<path d="M7.95399 15.8768L4.66683 12.5897C4.49498 12.4178 4.39844 12.1847 4.39844 11.9416C4.39844 11.6985 4.49498 11.4654 4.66683 11.2935L6.76874 9.19159L7.22708 9.64993L9.97708 6.89993L9.51874 6.44159L11.6207 4.33968C11.7926 4.16783 12.0257 4.07129 12.2687 4.07129C12.5118 4.07129 12.7449 4.16783 12.9168 4.33968L16.204 7.62684C16.3758 7.79874 16.4724 8.03186 16.4724 8.27493C16.4724 8.51799 16.3758 8.75111 16.204 8.92301L14.1021 11.0249L13.6437 10.5666L10.8937 13.3166L11.3521 13.7749L9.25016 15.8768C9.07826 16.0487 8.84514 16.1452 8.60208 16.1452C8.35901 16.1452 8.12589 16.0487 7.95399 15.8768Z" stroke="#3F4159" stroke-width="2" stroke-linecap="round" stroke-linejoin="round"/>
</svg>
