<svg width="25" height="24" viewBox="0 0 25 24" fill="none" xmlns="http://www.w3.org/2000/svg">
<path fill-rule="evenodd" clip-rule="evenodd" d="M12.4734 5.85706C8.65258 5.85706 5.38668 8.19171 4.08976 11.4857C4.032 11.6324 4.032 11.7954 4.08976 11.942C5.38668 15.2361 8.65258 17.5707 12.4734 17.5707C16.2942 17.5707 19.5601 15.2361 20.8571 11.9421C20.9148 11.7954 20.9148 11.6324 20.8571 11.4857C19.5601 8.19171 16.2942 5.85706 12.4734 5.85706ZM2.22745 10.7841C3.81116 6.76162 7.80001 3.90479 12.4734 3.90479C17.1468 3.90479 21.1357 6.76163 22.7194 10.7841C22.9549 11.3824 22.9549 12.0454 22.7194 12.6437C21.1356 16.6662 17.1468 19.523 12.4734 19.523C7.80001 19.523 3.81116 16.6662 2.22745 12.6437C1.99189 12.0454 1.99189 11.3824 2.22745 10.7841Z" fill="#121433"/>
<path fill-rule="evenodd" clip-rule="evenodd" d="M12.4734 9.76162C11.3712 9.76162 10.4777 10.6357 10.4777 11.7139C10.4777 12.7921 11.3712 13.6662 12.4734 13.6662C13.5756 13.6662 14.4691 12.7921 14.4691 11.7139C14.4691 10.6357 13.5756 9.76162 12.4734 9.76162ZM8.48208 11.7139C8.48208 9.55747 10.2691 7.80934 12.4734 7.80934C14.6778 7.80934 16.4647 9.55747 16.4647 11.7139C16.4647 13.8703 14.6778 15.6185 12.4734 15.6185C10.2691 15.6185 8.48208 13.8703 8.48208 11.7139Z" fill="#121433"/>
</svg>
