<svg width="22" height="18" viewBox="0 0 22 18" fill="none" xmlns="http://www.w3.org/2000/svg">
<path d="M19.46 16.0347L4.49252 1.39258M9.2821 7.19238C8.9095 7.59424 8.6834 8.12211 8.6834 8.70025C8.6834 9.95926 9.75559 10.9799 11.0782 10.9799C11.688 10.9799 12.2446 10.7629 12.6674 10.4056M19.4987 10.9799C20.3231 9.77256 20.6574 8.78793 20.6574 8.78793C20.6574 8.78793 18.4775 1.97826 11.0782 1.97826C10.6628 1.97826 10.2638 1.99972 9.8808 2.04024M16.4665 13.9354C15.0921 14.7932 13.3226 15.3997 11.0782 15.3638C3.77101 15.2469 1.49902 8.78793 1.49902 8.78793C1.49902 8.78793 2.55459 5.49048 5.68991 3.48476" stroke="#121433" stroke-width="2" stroke-linecap="round"/>
</svg>
