<svg width="137" height="72" viewBox="0 0 137 72" fill="none" xmlns="http://www.w3.org/2000/svg">
<g id="Group 1000002814">
<path id="Icon Bg" fill-rule="evenodd" clip-rule="evenodd" d="M88.533 72H29.7264C27.2281 72 25.2028 70.4778 25.2028 68.6C25.2028 66.7222 27.2281 65.2 29.7264 65.2H4.52358C2.02528 65.2 0 63.6778 0 61.8C0 59.9222 2.02528 58.4 4.52358 58.4H30.3726C32.8709 58.4 34.8962 56.8778 34.8962 55C34.8962 53.1222 32.8709 51.6 30.3726 51.6H14.217C11.7187 51.6 9.6934 50.0778 9.6934 48.2C9.6934 46.3222 11.7187 44.8 14.217 44.8H40.066C37.5677 44.8 35.5425 43.2778 35.5425 41.4C35.5425 39.5222 37.5677 38 40.066 38H76.9009C79.3992 38 81.4245 39.5222 81.4245 41.4C81.4245 43.2778 79.3992 44.8 76.9009 44.8H118.259C120.758 44.8 122.783 46.3222 122.783 48.2C122.783 50.0778 120.758 51.6 118.259 51.6H132.476C134.975 51.6 137 53.1222 137 55C137 56.8778 134.975 58.4 132.476 58.4H120.198C117.7 58.4 115.675 59.9222 115.675 61.8C115.675 63.6778 117.7 65.2 120.198 65.2H124.075C126.574 65.2 128.599 66.7222 128.599 68.6C128.599 70.4778 126.574 72 124.075 72H90.4717C90.3651 72 90.2593 71.9972 90.1546 71.9918C89.7205 71.9692 89.2842 71.9692 88.8501 71.9918C88.7454 71.9972 88.6396 72 88.533 72Z" fill="#F1F3F8"/>
<g id="Vector">
<path d="M61.9142 55C56.991 55 53 51.009 53 46.0858V16.3714C53 11.4482 56.991 7.45712 61.9142 7.45712H91.6284C96.5516 7.45712 100.543 11.4482 100.543 16.3714L100.543 46.0858C100.543 51.009 96.5516 55 91.6284 55H61.9142Z" fill="#FFDDAB"/>
<path d="M55.9714 20.0856H97.5712M61.3483 3V7.45766M91.6284 3V7.45712M91.6284 7.45712H61.9142C56.991 7.45712 53 11.4482 53 16.3714V46.0858C53 51.009 56.991 55 61.9142 55H91.6284C96.5516 55 100.543 51.009 100.543 46.0858L100.543 16.3714C100.543 11.4482 96.5516 7.45712 91.6284 7.45712ZM84.1998 36.4285H69.3428" stroke="#4E2788" stroke-width="4" stroke-linecap="round" stroke-linejoin="round"/>
</g>
<g id="Dark tone">
<path d="M115.963 22.1684C115.963 23.5288 114.873 24.6315 113.53 24.6315C112.186 24.6315 111.097 23.5288 111.097 22.1684C111.097 20.808 112.186 19.7052 113.53 19.7052C114.873 19.7052 115.963 20.808 115.963 22.1684Z" fill="#4E2788"/>
<path d="M107.991 0.869825C108.461 -0.289942 110.084 -0.289942 110.555 0.869825L110.951 1.84655C111.092 2.19321 111.364 2.46846 111.706 2.61097L112.671 3.01249C113.816 3.48926 113.816 5.13178 112.671 5.60855L111.706 6.01007C111.364 6.15258 111.092 6.42784 110.951 6.7745L110.555 7.75122C110.084 8.91098 108.461 8.91098 107.991 7.75121L107.594 6.7745C107.453 6.42784 107.181 6.15258 106.839 6.01007L105.874 5.60855C104.729 5.13178 104.729 3.48926 105.874 3.01249L106.839 2.61097C107.181 2.46846 107.453 2.19321 107.594 1.84654L107.991 0.869825Z" fill="#4E2788"/>
<path d="M41.4319 8.47323C41.4319 9.83359 40.3427 10.9364 38.9992 10.9364C37.6556 10.9364 36.5664 9.83359 36.5664 8.47323C36.5664 7.11286 37.6556 6.01007 38.9992 6.01007C40.3427 6.01007 41.4319 7.11286 41.4319 8.47323Z" fill="#4E2788"/>
</g>
</g>
</svg>
