<svg width="216" height="216" viewBox="0 0 216 216" fill="none" xmlns="http://www.w3.org/2000/svg">
<mask id="path-1-outside-1_937_2406" maskUnits="userSpaceOnUse" x="44" y="45.8457" width="125" height="119" fill="black">
<rect fill="white" x="44" y="45.8457" width="125" height="119"/>
<path d="M160.765 104.05H151.097C150.164 96.7312 143.952 91.2453 136.586 91.2278C136.026 91.2278 135.572 91.6831 135.572 92.2375C135.572 92.7977 136.026 93.2529 136.586 93.2529C143.55 93.2588 149.197 98.9139 149.203 105.888V148.403C149.203 155.389 143.556 161.05 136.586 161.056H76.9675C69.9975 161.05 64.3446 155.389 64.3328 148.403V105.888C64.3445 98.9079 69.9975 93.2529 76.9675 93.2529C77.527 93.2529 77.9815 92.7977 77.9815 92.2375C77.9815 91.6831 77.527 91.2278 76.9675 91.2278C69.5954 91.2395 63.3771 96.7254 62.4389 104.05H52.8173C48.831 104.05 45.5908 107.294 45.5908 111.286V143.022C45.5908 147.014 48.831 150.259 52.8173 150.259H62.4856C63.418 157.565 69.6129 163.046 76.9675 163.081H136.586C143.952 163.063 150.164 157.577 151.097 150.259H160.765C164.757 150.259 167.992 147.014 167.992 143.022V111.286C167.992 109.366 167.228 107.528 165.876 106.174C164.518 104.814 162.683 104.05 160.765 104.05ZM47.6129 142.958V111.287C47.6129 108.409 49.944 106.075 52.8171 106.075H62.3629V148.235H52.8171C49.9498 148.229 47.6187 145.894 47.6129 143.023V142.958ZM165.969 142.958C165.963 145.835 163.638 148.164 160.765 148.17H151.225V106.074H160.765C162.146 106.074 163.469 106.623 164.448 107.603C165.421 108.578 165.969 109.903 165.969 111.286V142.958ZM54.9784 103.77C55.5379 103.77 55.9866 103.321 55.9866 102.76V66.7816C61.2725 66.2388 65.212 61.6459 64.9439 56.3351C64.6758 51.0185 60.2933 46.8457 54.9784 46.8457C49.6635 46.8457 45.281 51.0185 45.0129 56.3351C44.7448 61.6459 48.6843 66.2388 53.9702 66.7816V102.76C53.9702 103.321 54.419 103.77 54.9784 103.77ZM47.0236 56.8371C47.0236 53.6039 48.9643 50.6917 51.9481 49.4604C54.9261 48.2231 58.3586 48.9059 60.6372 51.1937C62.9158 53.4814 63.592 56.9188 62.3564 59.901C61.1151 62.8832 58.2071 64.8266 54.9784 64.8208C50.5843 64.8091 47.0236 61.2375 47.0236 56.8371ZM111.968 122.79C112.09 122.82 112.218 122.82 112.341 122.79C112.621 122.79 112.883 122.674 113.069 122.464L124.789 109.887C129.568 109.735 133.367 105.819 133.379 101.034V77.1937C133.373 72.5133 129.585 68.7198 124.911 68.7081H88.6684C83.9945 68.7198 80.2064 72.5133 80.2006 77.1937V101.501C80.2064 106.182 83.9945 109.975 88.6684 109.981H102.562C107.399 109.981 111.321 113.903 111.327 118.747V121.857C111.321 122.272 111.577 122.645 111.968 122.79ZM102.568 107.944H88.6684C85.1193 107.938 82.2404 105.061 82.2229 101.501V77.193C82.2229 73.6214 85.1077 70.7268 88.6684 70.7151H124.911C126.625 70.7151 128.268 71.3979 129.474 72.6118C130.687 73.8315 131.363 75.4773 131.363 77.193V101.109C131.351 104.885 128.291 107.943 124.521 107.943C124.136 107.949 123.763 108.112 123.495 108.393L113.349 119.288V118.746C113.297 112.799 108.5 107.996 102.562 107.943L102.568 107.944ZM117.283 98.1859H96.3035C95.7441 98.1859 95.2895 97.7307 95.2895 97.1763C95.2895 96.616 95.7441 96.1608 96.3035 96.1608H117.283C117.836 96.1608 118.291 96.616 118.291 97.1763C118.291 97.7307 117.836 98.1859 117.283 98.1859ZM95.289 92.5075C95.289 91.9472 95.7436 91.492 96.3031 91.492H106.793C107.347 91.492 107.801 91.9472 107.801 92.5075C107.801 93.0619 107.347 93.5171 106.793 93.5171H96.3031C95.7436 93.5171 95.289 93.0619 95.289 92.5075ZM95.289 87.8387C95.289 87.2784 95.7436 86.8232 96.3031 86.8232H117.282C117.836 86.8232 118.29 87.2784 118.29 87.8387C118.29 88.3931 117.836 88.8483 117.282 88.8483H96.3031C95.7436 88.8483 95.289 88.3931 95.289 87.8387ZM95.289 83.1699C95.289 82.6096 95.7436 82.1544 96.3031 82.1544H106.793C107.347 82.1544 107.801 82.6096 107.801 83.1699C107.801 83.7243 107.347 84.1795 106.793 84.1795H96.3031C95.7436 84.1795 95.289 83.7243 95.289 83.1699Z"/>
</mask>
<path d="M160.765 104.05H151.097C150.164 96.7312 143.952 91.2453 136.586 91.2278C136.026 91.2278 135.572 91.6831 135.572 92.2375C135.572 92.7977 136.026 93.2529 136.586 93.2529C143.55 93.2588 149.197 98.9139 149.203 105.888V148.403C149.203 155.389 143.556 161.05 136.586 161.056H76.9675C69.9975 161.05 64.3446 155.389 64.3328 148.403V105.888C64.3445 98.9079 69.9975 93.2529 76.9675 93.2529C77.527 93.2529 77.9815 92.7977 77.9815 92.2375C77.9815 91.6831 77.527 91.2278 76.9675 91.2278C69.5954 91.2395 63.3771 96.7254 62.4389 104.05H52.8173C48.831 104.05 45.5908 107.294 45.5908 111.286V143.022C45.5908 147.014 48.831 150.259 52.8173 150.259H62.4856C63.418 157.565 69.6129 163.046 76.9675 163.081H136.586C143.952 163.063 150.164 157.577 151.097 150.259H160.765C164.757 150.259 167.992 147.014 167.992 143.022V111.286C167.992 109.366 167.228 107.528 165.876 106.174C164.518 104.814 162.683 104.05 160.765 104.05ZM47.6129 142.958V111.287C47.6129 108.409 49.944 106.075 52.8171 106.075H62.3629V148.235H52.8171C49.9498 148.229 47.6187 145.894 47.6129 143.023V142.958ZM165.969 142.958C165.963 145.835 163.638 148.164 160.765 148.17H151.225V106.074H160.765C162.146 106.074 163.469 106.623 164.448 107.603C165.421 108.578 165.969 109.903 165.969 111.286V142.958ZM54.9784 103.77C55.5379 103.77 55.9866 103.321 55.9866 102.76V66.7816C61.2725 66.2388 65.212 61.6459 64.9439 56.3351C64.6758 51.0185 60.2933 46.8457 54.9784 46.8457C49.6635 46.8457 45.281 51.0185 45.0129 56.3351C44.7448 61.6459 48.6843 66.2388 53.9702 66.7816V102.76C53.9702 103.321 54.419 103.77 54.9784 103.77ZM47.0236 56.8371C47.0236 53.6039 48.9643 50.6917 51.9481 49.4604C54.9261 48.2231 58.3586 48.9059 60.6372 51.1937C62.9158 53.4814 63.592 56.9188 62.3564 59.901C61.1151 62.8832 58.2071 64.8266 54.9784 64.8208C50.5843 64.8091 47.0236 61.2375 47.0236 56.8371ZM111.968 122.79C112.09 122.82 112.218 122.82 112.341 122.79C112.621 122.79 112.883 122.674 113.069 122.464L124.789 109.887C129.568 109.735 133.367 105.819 133.379 101.034V77.1937C133.373 72.5133 129.585 68.7198 124.911 68.7081H88.6684C83.9945 68.7198 80.2064 72.5133 80.2006 77.1937V101.501C80.2064 106.182 83.9945 109.975 88.6684 109.981H102.562C107.399 109.981 111.321 113.903 111.327 118.747V121.857C111.321 122.272 111.577 122.645 111.968 122.79ZM102.568 107.944H88.6684C85.1193 107.938 82.2404 105.061 82.2229 101.501V77.193C82.2229 73.6214 85.1077 70.7268 88.6684 70.7151H124.911C126.625 70.7151 128.268 71.3979 129.474 72.6118C130.687 73.8315 131.363 75.4773 131.363 77.193V101.109C131.351 104.885 128.291 107.943 124.521 107.943C124.136 107.949 123.763 108.112 123.495 108.393L113.349 119.288V118.746C113.297 112.799 108.5 107.996 102.562 107.943L102.568 107.944ZM117.283 98.1859H96.3035C95.7441 98.1859 95.2895 97.7307 95.2895 97.1763C95.2895 96.616 95.7441 96.1608 96.3035 96.1608H117.283C117.836 96.1608 118.291 96.616 118.291 97.1763C118.291 97.7307 117.836 98.1859 117.283 98.1859ZM95.289 92.5075C95.289 91.9472 95.7436 91.492 96.3031 91.492H106.793C107.347 91.492 107.801 91.9472 107.801 92.5075C107.801 93.0619 107.347 93.5171 106.793 93.5171H96.3031C95.7436 93.5171 95.289 93.0619 95.289 92.5075ZM95.289 87.8387C95.289 87.2784 95.7436 86.8232 96.3031 86.8232H117.282C117.836 86.8232 118.29 87.2784 118.29 87.8387C118.29 88.3931 117.836 88.8483 117.282 88.8483H96.3031C95.7436 88.8483 95.289 88.3931 95.289 87.8387ZM95.289 83.1699C95.289 82.6096 95.7436 82.1544 96.3031 82.1544H106.793C107.347 82.1544 107.801 82.6096 107.801 83.1699C107.801 83.7243 107.347 84.1795 106.793 84.1795H96.3031C95.7436 84.1795 95.289 83.7243 95.289 83.1699Z" fill="black"/>
<path d="M160.765 104.05H151.097C150.164 96.7312 143.952 91.2453 136.586 91.2278C136.026 91.2278 135.572 91.6831 135.572 92.2375C135.572 92.7977 136.026 93.2529 136.586 93.2529C143.55 93.2588 149.197 98.9139 149.203 105.888V148.403C149.203 155.389 143.556 161.05 136.586 161.056H76.9675C69.9975 161.05 64.3446 155.389 64.3328 148.403V105.888C64.3445 98.9079 69.9975 93.2529 76.9675 93.2529C77.527 93.2529 77.9815 92.7977 77.9815 92.2375C77.9815 91.6831 77.527 91.2278 76.9675 91.2278C69.5954 91.2395 63.3771 96.7254 62.4389 104.05H52.8173C48.831 104.05 45.5908 107.294 45.5908 111.286V143.022C45.5908 147.014 48.831 150.259 52.8173 150.259H62.4856C63.418 157.565 69.6129 163.046 76.9675 163.081H136.586C143.952 163.063 150.164 157.577 151.097 150.259H160.765C164.757 150.259 167.992 147.014 167.992 143.022V111.286C167.992 109.366 167.228 107.528 165.876 106.174C164.518 104.814 162.683 104.05 160.765 104.05ZM47.6129 142.958V111.287C47.6129 108.409 49.944 106.075 52.8171 106.075H62.3629V148.235H52.8171C49.9498 148.229 47.6187 145.894 47.6129 143.023V142.958ZM165.969 142.958C165.963 145.835 163.638 148.164 160.765 148.17H151.225V106.074H160.765C162.146 106.074 163.469 106.623 164.448 107.603C165.421 108.578 165.969 109.903 165.969 111.286V142.958ZM54.9784 103.77C55.5379 103.77 55.9866 103.321 55.9866 102.76V66.7816C61.2725 66.2388 65.212 61.6459 64.9439 56.3351C64.6758 51.0185 60.2933 46.8457 54.9784 46.8457C49.6635 46.8457 45.281 51.0185 45.0129 56.3351C44.7448 61.6459 48.6843 66.2388 53.9702 66.7816V102.76C53.9702 103.321 54.419 103.77 54.9784 103.77ZM47.0236 56.8371C47.0236 53.6039 48.9643 50.6917 51.9481 49.4604C54.9261 48.2231 58.3586 48.9059 60.6372 51.1937C62.9158 53.4814 63.592 56.9188 62.3564 59.901C61.1151 62.8832 58.2071 64.8266 54.9784 64.8208C50.5843 64.8091 47.0236 61.2375 47.0236 56.8371ZM111.968 122.79C112.09 122.82 112.218 122.82 112.341 122.79C112.621 122.79 112.883 122.674 113.069 122.464L124.789 109.887C129.568 109.735 133.367 105.819 133.379 101.034V77.1937C133.373 72.5133 129.585 68.7198 124.911 68.7081H88.6684C83.9945 68.7198 80.2064 72.5133 80.2006 77.1937V101.501C80.2064 106.182 83.9945 109.975 88.6684 109.981H102.562C107.399 109.981 111.321 113.903 111.327 118.747V121.857C111.321 122.272 111.577 122.645 111.968 122.79ZM102.568 107.944H88.6684C85.1193 107.938 82.2404 105.061 82.2229 101.501V77.193C82.2229 73.6214 85.1077 70.7268 88.6684 70.7151H124.911C126.625 70.7151 128.268 71.3979 129.474 72.6118C130.687 73.8315 131.363 75.4773 131.363 77.193V101.109C131.351 104.885 128.291 107.943 124.521 107.943C124.136 107.949 123.763 108.112 123.495 108.393L113.349 119.288V118.746C113.297 112.799 108.5 107.996 102.562 107.943L102.568 107.944ZM117.283 98.1859H96.3035C95.7441 98.1859 95.2895 97.7307 95.2895 97.1763C95.2895 96.616 95.7441 96.1608 96.3035 96.1608H117.283C117.836 96.1608 118.291 96.616 118.291 97.1763C118.291 97.7307 117.836 98.1859 117.283 98.1859ZM95.289 92.5075C95.289 91.9472 95.7436 91.492 96.3031 91.492H106.793C107.347 91.492 107.801 91.9472 107.801 92.5075C107.801 93.0619 107.347 93.5171 106.793 93.5171H96.3031C95.7436 93.5171 95.289 93.0619 95.289 92.5075ZM95.289 87.8387C95.289 87.2784 95.7436 86.8232 96.3031 86.8232H117.282C117.836 86.8232 118.29 87.2784 118.29 87.8387C118.29 88.3931 117.836 88.8483 117.282 88.8483H96.3031C95.7436 88.8483 95.289 88.3931 95.289 87.8387ZM95.289 83.1699C95.289 82.6096 95.7436 82.1544 96.3031 82.1544H106.793C107.347 82.1544 107.801 82.6096 107.801 83.1699C107.801 83.7243 107.347 84.1795 106.793 84.1795H96.3031C95.7436 84.1795 95.289 83.7243 95.289 83.1699Z" stroke="black" stroke-width="1.62" mask="url(#path-1-outside-1_937_2406)"/>
</svg>
