<svg width="103" height="98" viewBox="0 0 103 98" fill="none" xmlns="http://www.w3.org/2000/svg">
<path d="M26.2081 0.992184C20.1437 6.12218 12.7372 9.5061 6.73865 14.646C5.72131 15.5172 1.77648 17.5294 1.42834 18.9192M1.42834 18.9192C0.977395 20.7239 5.37138 23.0273 6.3815 23.5937C11.4745 26.4491 20.4015 31.3469 26.2693 33.8465M1.42834 18.9192C22.7123 14.9722 54.6733 27.189 56.9036 46.7445M56.9036 46.7445C57.4941 51.9219 56.0006 57.6136 51.6735 63.656C43.4914 75.0803 29.2765 62.8118 36.5367 52.118C40.5459 46.2143 49.5873 45.683 56.9036 46.7445ZM56.9036 46.7445C59.005 47.0494 60.964 47.4857 62.6206 47.9639C83.1595 53.8921 99.8636 75.8875 102.003 96.743" stroke="white" stroke-width="2" stroke-miterlimit="1.5" stroke-linecap="round" stroke-linejoin="round"/>
</svg>
