<svg width="25" height="24" viewBox="0 0 25 24" fill="none" xmlns="http://www.w3.org/2000/svg">
<path d="M8.10556 10.1907L5.87211 12.4242C5.03797 13.2583 4.55829 14.3933 4.56706 15.5861C4.57582 16.7789 5.04501 17.9208 5.91872 18.7675C6.76541 19.6413 7.90753 20.1104 9.10015 20.1192C10.32 20.1282 11.4281 19.6755 12.2623 18.8414L14.4957 16.6079M17.3485 13.8097L19.582 11.5762C20.4161 10.7421 20.8958 9.60711 20.887 8.4143C20.8783 7.22149 20.4091 6.0796 19.5354 5.23287C18.6889 4.38638 17.547 3.91717 16.3541 3.90841C15.1613 3.89964 14.0262 4.35209 13.192 5.18625L10.9586 7.4197M9.34015 15.3274L16.0405 8.62701" stroke="#3F4159" stroke-width="2" stroke-linecap="round" stroke-linejoin="round"/>
</svg>
