<svg width="151" height="151" viewBox="0 0 151 151" fill="none" xmlns="http://www.w3.org/2000/svg">
<g clip-path="url(#clip0_6689_27493)">
<mask id="mask0_6689_27493" style="mask-type:luminance" maskUnits="userSpaceOnUse" x="0" y="0" width="151" height="151">
<path d="M151 0H0V151H151V0Z" fill="white"/>
</mask>
<g mask="url(#mask0_6689_27493)">
<path d="M121.622 78.1333C121.622 103.863 100.764 124.722 75.0336 124.722C49.3036 124.722 28.4453 103.863 28.4453 78.1333C28.4453 52.4033 49.3036 31.5449 75.0336 31.5449C100.764 31.5449 121.622 52.4033 121.622 78.1333Z" fill="#E9F6ED"/>
<path d="M109.924 78.1331C109.924 97.4026 94.3023 113.023 75.033 113.023C55.7634 113.023 40.1426 97.4026 40.1426 78.1331C40.1426 58.8635 55.7634 43.2427 75.033 43.2427C94.3023 43.2427 109.924 58.8635 109.924 78.1331Z" stroke="#26AE60" stroke-width="14.8" stroke-miterlimit="10"/>
<path d="M106.153 78.1335C106.153 95.3197 92.2208 109.252 75.0346 109.252C57.8483 109.252 43.916 95.3197 43.916 78.1335C43.916 60.9473 57.8483 47.0151 75.0346 47.0151C92.2208 47.0151 106.153 60.9473 106.153 78.1335Z" fill="#26AE60"/>
<mask id="mask1_6689_27493" style="mask-type:luminance" maskUnits="userSpaceOnUse" x="28" y="40" width="15" height="15">
<path d="M28.8359 40.9722H42.2447V54.381H28.8359V40.9722Z" fill="white"/>
</mask>
<g mask="url(#mask1_6689_27493)">
<path d="M32.6679 44.9655C32.6131 44.8835 32.7161 44.7886 32.7937 44.8494C33.5062 45.4078 34.8561 46.4052 35.4112 46.4078C35.963 46.4103 37.3092 45.4372 38.0301 44.8835C38.1086 44.8232 38.2106 44.9201 38.1543 45.0015C37.6546 45.7223 36.7962 47.0397 36.7937 47.5862C36.7911 48.1615 37.7289 49.5998 38.2052 50.2929C38.2591 50.3715 38.1655 50.467 38.086 50.4144C37.3946 49.9565 35.9724 49.0629 35.399 49.0602C34.8232 49.0576 33.3832 49.9454 32.6909 50.3951C32.6113 50.4468 32.5185 50.3513 32.5723 50.2731C33.0449 49.5868 33.9844 48.1503 33.9871 47.5733C33.9896 47.024 33.1508 45.6885 32.6679 44.9655Z" fill="#26AE60"/>
</g>
<mask id="mask2_6689_27493" style="mask-type:luminance" maskUnits="userSpaceOnUse" x="108" y="77" width="19" height="18">
<path d="M108.131 77.0186H126.009V94.897H108.131V77.0186Z" fill="white"/>
</mask>
<g mask="url(#mask2_6689_27493)">
<path d="M112.383 83.9461C112.28 83.8727 112.36 83.7115 112.481 83.749C113.592 84.0933 115.67 84.6729 116.337 84.4219C117.001 84.1723 118.172 82.3875 118.784 81.3927C118.851 81.2844 119.017 81.3539 118.987 81.4775C118.717 82.5718 118.29 84.5464 118.537 85.2038C118.797 85.8958 120.582 87.1934 121.471 87.8075C121.571 87.8771 121.503 88.0347 121.383 88.0079C120.343 87.7747 118.227 87.3529 117.537 87.6122C116.844 87.8726 115.522 89.5978 114.897 90.4548C114.825 90.5533 114.67 90.4811 114.698 90.3626C114.952 89.3222 115.422 87.1673 115.161 86.4732C114.913 85.8126 113.294 84.5931 112.383 83.9461Z" fill="#26AE60"/>
</g>
<mask id="mask3_6689_27493" style="mask-type:luminance" maskUnits="userSpaceOnUse" x="97" y="102" width="12" height="11">
<path d="M97.9082 102.594H108.09V112.776H97.9082V102.594Z" fill="white"/>
</mask>
<g mask="url(#mask3_6689_27493)">
<path d="M100.241 107.821C100.173 107.811 100.172 107.713 100.24 107.701C100.86 107.593 102.005 107.359 102.265 107.074C102.523 106.789 102.647 105.64 102.696 105.009C102.702 104.941 102.799 104.933 102.815 105C102.955 105.594 103.237 106.652 103.518 106.907C103.814 107.177 104.995 107.362 105.575 107.438C105.641 107.447 105.647 107.54 105.583 107.556C105.024 107.701 103.899 108.02 103.631 108.315C103.361 108.612 103.15 109.77 103.06 110.338C103.05 110.403 102.957 110.406 102.942 110.342C102.807 109.778 102.501 108.623 102.204 108.353C101.921 108.096 100.84 107.908 100.241 107.821Z" fill="#26AE60"/>
</g>
<mask id="mask4_6689_27493" style="mask-type:luminance" maskUnits="userSpaceOnUse" x="100" y="34" width="15" height="14">
<path d="M100.641 34.3506H114.049V47.7594H100.641V34.3506Z" fill="white"/>
</mask>
<g mask="url(#mask4_6689_27493)">
<path d="M104.142 43.5161C104.052 43.5631 103.966 43.446 104.037 43.373C104.695 42.7028 105.878 41.4262 105.945 40.8543C106.011 40.2858 105.163 38.7862 104.675 37.9794C104.622 37.8915 104.734 37.7975 104.811 37.865C105.496 38.463 106.756 39.4994 107.319 39.5649C107.911 39.6338 109.502 38.8327 110.271 38.4215C110.358 38.3749 110.446 38.4824 110.383 38.5583C109.831 39.2182 108.746 40.5814 108.678 41.1722C108.609 41.7654 109.358 43.3518 109.742 44.1172C109.786 44.2052 109.677 44.2899 109.602 44.2254C108.949 43.6593 107.577 42.5255 106.982 42.4564C106.416 42.3906 104.943 43.1015 104.142 43.5161Z" fill="#26AE60"/>
</g>
<mask id="mask5_6689_27493" style="mask-type:luminance" maskUnits="userSpaceOnUse" x="29" y="98" width="23" height="23">
<path d="M29.334 98.5806H51.682V120.929H29.334V98.5806Z" fill="white"/>
</mask>
<g mask="url(#mask5_6689_27493)">
<path d="M37.6352 115.99C37.5347 116.135 37.3082 116.026 37.3584 115.857C37.8188 114.299 38.5902 111.389 38.2277 110.462C37.8673 109.54 35.3551 107.938 33.9555 107.102C33.8031 107.011 33.8971 106.777 34.0701 106.817C35.6024 107.174 38.3662 107.735 39.2793 107.378C40.2404 107.002 42.0192 104.488 42.8603 103.236C42.9556 103.094 43.1768 103.187 43.1416 103.354C42.8348 104.81 42.2844 107.772 42.6589 108.73C43.0349 109.692 45.4668 111.506 46.6743 112.364C46.813 112.462 46.715 112.68 46.5491 112.642C45.0924 112.307 42.0762 111.69 41.1121 112.067C40.1946 112.425 38.5218 114.707 37.6352 115.99Z" fill="#26AE60"/>
</g>
<path d="M88.4421 69.0288L71.2698 84.4883L63.2754 75.8598" stroke="white" stroke-width="8" stroke-linecap="round" stroke-linejoin="round"/>
</g>
</g>
<defs>
<clipPath id="clip0_6689_27493">
<rect width="151" height="151" fill="white"/>
</clipPath>
</defs>
</svg>
