<svg width="304" height="144" viewBox="0 0 304 144" fill="none" xmlns="http://www.w3.org/2000/svg">
<path fill-rule="evenodd" clip-rule="evenodd" d="M200.698 144H75.3585C70.0336 144 65.717 140.105 65.717 135.3C65.717 130.495 70.0336 126.6 75.3585 126.6H21.6415C16.3167 126.6 12 122.705 12 117.9C12 113.095 16.3167 109.2 21.6415 109.2H76.7358C82.0607 109.2 86.3774 105.305 86.3774 100.5C86.3774 95.6951 82.0607 91.8 76.7358 91.8H42.3019C36.977 91.8 32.6604 87.9049 32.6604 83.1C32.6604 78.2951 36.977 74.4 42.3019 74.4H97.3962C92.0714 74.4 87.7547 70.5049 87.7547 65.7C87.7547 60.8951 92.0714 57 97.3962 57H175.906C181.231 57 185.547 60.8951 185.547 65.7C185.547 70.5049 181.231 74.4 175.906 74.4H264.057C269.381 74.4 273.698 78.2951 273.698 83.1C273.698 87.9049 269.381 91.8 264.057 91.8H294.358C299.683 91.8 304 95.6951 304 100.5C304 105.305 299.683 109.2 294.358 109.2H268.189C262.864 109.2 258.547 113.095 258.547 117.9C258.547 122.705 262.864 126.6 268.189 126.6H276.453C281.778 126.6 286.094 130.495 286.094 135.3C286.094 140.105 281.778 144 276.453 144H204.83C204.662 144 204.494 143.996 204.327 143.988C203.288 143.94 202.24 143.94 201.201 143.988C201.034 143.996 200.867 144 200.698 144Z" fill="#F1F3F8"/>
<path fill-rule="evenodd" clip-rule="evenodd" d="M165.989 23.4999C167.37 23.4999 168.489 24.6191 168.489 25.9998L168.493 140.099C168.493 141.48 167.374 142.599 165.993 142.599C164.613 142.599 163.493 141.48 163.493 140.099L163.489 26C163.489 24.6193 164.609 23.5 165.989 23.4999Z" fill="#31125F"/>
<path fill-rule="evenodd" clip-rule="evenodd" d="M112.937 38.4961C112.937 37.1154 114.056 35.9961 115.437 35.9961L216.562 35.9961C217.942 35.9961 219.062 37.1154 219.062 38.4961C219.062 39.8768 217.942 40.9961 216.562 40.9961L115.437 40.9961C114.056 40.9961 112.937 39.8768 112.937 38.4961Z" fill="#31125F"/>
<path fill-rule="evenodd" clip-rule="evenodd" d="M206.515 47.134L220.757 84.5558C221.248 85.8462 222.693 86.4942 223.983 86.003C225.273 85.5119 225.921 84.0677 225.43 82.7773L209.786 41.672C208.641 38.6654 204.388 38.6653 203.244 41.672L187.599 82.7773C187.108 84.0677 187.756 85.5119 189.046 86.003C190.337 86.4942 191.781 85.8462 192.272 84.5558L206.515 47.134Z" fill="#31125F"/>
<path fill-rule="evenodd" clip-rule="evenodd" d="M125.044 47.134L139.287 84.5558C139.778 85.8462 141.222 86.4942 142.512 86.003C143.803 85.5119 144.451 84.0677 143.96 82.7773L128.315 41.672C127.171 38.6654 122.917 38.6653 121.773 41.672L106.128 82.7773C105.637 84.0677 106.285 85.5119 107.576 86.003C108.866 86.4942 110.31 85.8462 110.801 84.5558L125.044 47.134Z" fill="#31125F"/>
<path d="M232.222 82.7822C232.648 82.7822 233.002 82.9559 233.222 83.1855C233.427 83.3998 233.512 83.6488 233.474 83.932C232.69 89.6681 230.076 95.0249 225.982 99.1601C221.031 104.162 214.32 106.967 207.329 106.967C200.337 106.967 193.627 104.162 188.675 99.1601C184.581 95.0249 181.967 89.6681 181.184 83.932C181.145 83.6488 181.23 83.3998 181.436 83.1855C181.656 82.9559 182.01 82.7822 182.436 82.7822L232.222 82.7822ZM150.548 82.7822C150.974 82.7822 151.328 82.9559 151.548 83.1855C151.754 83.3998 151.839 83.6488 151.8 83.932C151.017 89.6681 148.402 95.0249 144.309 99.1601C139.357 104.162 132.647 106.967 125.655 106.967C118.663 106.967 111.953 104.162 107.001 99.1601C102.907 95.0249 100.293 89.6681 99.51 83.932C99.4714 83.6488 99.5563 83.3998 99.7617 83.1855C99.9818 82.9559 100.336 82.7822 100.762 82.7822L150.548 82.7822Z" fill="#4690DC" stroke="#31125F" stroke-width="5"/>
<path fill-rule="evenodd" clip-rule="evenodd" d="M147.486 140.165C147.486 138.784 148.606 137.665 149.986 137.665L179.986 137.665C181.367 137.665 182.486 138.784 182.486 140.165C182.486 141.546 181.367 142.665 179.986 142.665L149.986 142.665C148.606 142.665 147.486 141.546 147.486 140.165Z" fill="#31125F"/>
<circle cx="166" cy="22" r="6.5" fill="#4690DC" stroke="#31125F" stroke-width="5"/>
</svg>
