<svg width="139" height="120" viewBox="0 0 139 120" fill="none" xmlns="http://www.w3.org/2000/svg">
<g id="Group 238369">
<g id="Union">
<mask id="path-1-inside-1_8636_26738" fill="white">
<path fill-rule="evenodd" clip-rule="evenodd" d="M71.4889 2.99991C71.4889 1.6192 70.3695 0.499953 68.9888 0.5C67.6081 0.500047 66.4889 1.61937 66.4889 3.00009L66.4893 12.9961L18.4362 12.9961C17.0555 12.9961 15.9362 14.1154 15.9362 15.4961C15.9362 16.8768 17.0555 17.9961 18.4362 17.9961H25.1112C24.9799 18.2013 24.8659 18.4266 24.7725 18.6718L10.0775 57.2822H3.76137C1.55223 57.2822 -0.266604 59.0814 0.03227 61.2702C0.888019 67.5374 3.74466 73.3945 8.22389 77.9189C13.6424 83.3921 20.9914 86.4669 28.6542 86.4669C36.3171 86.4669 43.6661 83.3921 49.0846 77.9189C53.5638 73.3945 56.4204 67.5374 57.2762 61.2702C57.5751 59.0814 55.7562 57.2822 53.5471 57.2822H46.0097L31.3147 18.6718C31.2214 18.4266 31.1074 18.2013 30.976 17.9961L66.4894 17.9961L66.4928 117.1C66.4929 118.48 67.6122 119.599 68.9929 119.599C70.3736 119.599 71.4929 118.48 71.4928 117.099L71.4894 17.9961L106.582 17.9961C106.451 18.2013 106.337 18.4266 106.243 18.6718L91.5482 57.2822H85.4352C83.2261 57.2822 81.4072 59.0814 81.7061 61.2702C82.5618 67.5374 85.4185 73.3945 89.8977 77.9189C95.3162 83.3921 102.665 86.4669 110.328 86.4669C117.991 86.4669 125.34 83.3921 130.758 77.9189C135.238 73.3945 138.094 67.5374 138.95 61.2702C139.249 59.0814 137.43 57.2822 135.221 57.2822H127.48L112.785 18.6718C112.692 18.4266 112.578 18.2013 112.447 17.9961H119.561C120.942 17.9961 122.061 16.8768 122.061 15.4961C122.061 14.1154 120.942 12.9961 119.561 12.9961L71.4893 12.9961L71.4889 2.99991ZM40.6598 57.2822L28.0436 24.1338L15.4274 57.2822L28.6542 57.2822H40.6598ZM110.328 57.2822L96.8981 57.2822L109.514 24.1338L122.131 57.2822H110.328Z"/>
</mask>
<path fill-rule="evenodd" clip-rule="evenodd" d="M71.4889 2.99991C71.4889 1.6192 70.3695 0.499953 68.9888 0.5C67.6081 0.500047 66.4889 1.61937 66.4889 3.00009L66.4893 12.9961L18.4362 12.9961C17.0555 12.9961 15.9362 14.1154 15.9362 15.4961C15.9362 16.8768 17.0555 17.9961 18.4362 17.9961H25.1112C24.9799 18.2013 24.8659 18.4266 24.7725 18.6718L10.0775 57.2822H3.76137C1.55223 57.2822 -0.266604 59.0814 0.03227 61.2702C0.888019 67.5374 3.74466 73.3945 8.22389 77.9189C13.6424 83.3921 20.9914 86.4669 28.6542 86.4669C36.3171 86.4669 43.6661 83.3921 49.0846 77.9189C53.5638 73.3945 56.4204 67.5374 57.2762 61.2702C57.5751 59.0814 55.7562 57.2822 53.5471 57.2822H46.0097L31.3147 18.6718C31.2214 18.4266 31.1074 18.2013 30.976 17.9961L66.4894 17.9961L66.4928 117.1C66.4929 118.48 67.6122 119.599 68.9929 119.599C70.3736 119.599 71.4929 118.48 71.4928 117.099L71.4894 17.9961L106.582 17.9961C106.451 18.2013 106.337 18.4266 106.243 18.6718L91.5482 57.2822H85.4352C83.2261 57.2822 81.4072 59.0814 81.7061 61.2702C82.5618 67.5374 85.4185 73.3945 89.8977 77.9189C95.3162 83.3921 102.665 86.4669 110.328 86.4669C117.991 86.4669 125.34 83.3921 130.758 77.9189C135.238 73.3945 138.094 67.5374 138.95 61.2702C139.249 59.0814 137.43 57.2822 135.221 57.2822H127.48L112.785 18.6718C112.692 18.4266 112.578 18.2013 112.447 17.9961H119.561C120.942 17.9961 122.061 16.8768 122.061 15.4961C122.061 14.1154 120.942 12.9961 119.561 12.9961L71.4893 12.9961L71.4889 2.99991ZM40.6598 57.2822L28.0436 24.1338L15.4274 57.2822L28.6542 57.2822H40.6598ZM110.328 57.2822L96.8981 57.2822L109.514 24.1338L122.131 57.2822H110.328Z" fill="#4690DC"/>
<path d="M68.9888 0.5L68.989 5.5L68.9888 0.5ZM71.4889 2.99991L66.4889 3.00008V3.00009L71.4889 2.99991ZM66.4889 3.00009L61.4889 3.00025V3.00026L66.4889 3.00009ZM66.4893 12.9961V17.9961H71.4894L71.4893 12.9959L66.4893 12.9961ZM18.4362 12.9961L18.4362 7.99609H18.4362V12.9961ZM25.1112 17.9961L29.3228 20.6911L34.2469 12.9961H25.1112V17.9961ZM24.7725 18.6718L29.4455 20.4503H29.4455L24.7725 18.6718ZM10.0775 57.2822V62.2822H13.5244L14.7505 59.0608L10.0775 57.2822ZM0.03227 61.2702L-4.92176 61.9467L0.03227 61.2702ZM8.22389 77.9189L11.7771 74.4012H11.7771L8.22389 77.9189ZM49.0846 77.9189L45.5313 74.4012L49.0846 77.9189ZM57.2762 61.2702L52.3222 60.5938V60.5938L57.2762 61.2702ZM46.0097 57.2822L41.3367 59.0608L42.5628 62.2822H46.0097V57.2822ZM31.3147 18.6718L35.9877 16.8933L35.9877 16.8933L31.3147 18.6718ZM30.976 17.9961L30.976 12.9961L21.8403 12.9961L26.7645 20.6911L30.976 17.9961ZM66.4894 17.9961L71.4894 17.9959L71.4893 12.9961H66.4894V17.9961ZM66.4928 117.1L71.4928 117.099L66.4928 117.1ZM68.9929 119.599L68.9927 114.599L68.9929 119.599ZM71.4928 117.099L76.4928 117.099L71.4928 117.099ZM71.4894 17.9961V12.9961H66.4893L66.4894 17.9963L71.4894 17.9961ZM106.582 17.9961L110.793 20.6911L115.718 12.9961L106.582 12.9961V17.9961ZM106.243 18.6718L101.57 16.8933V16.8933L106.243 18.6718ZM91.5482 57.2822V62.2822H94.9951L96.2212 59.0608L91.5482 57.2822ZM81.7061 61.2702L86.6601 60.5938V60.5938L81.7061 61.2702ZM89.8977 77.9189L93.451 74.4012L89.8977 77.9189ZM130.758 77.9189L127.205 74.4012L130.758 77.9189ZM138.95 61.2702L133.996 60.5938V60.5938L138.95 61.2702ZM127.48 57.2822L122.807 59.0608L124.034 62.2822H127.48V57.2822ZM112.785 18.6718L108.112 20.4503L112.785 18.6718ZM112.447 17.9961V12.9961H103.311L108.235 20.6911L112.447 17.9961ZM119.561 12.9961V17.9961V12.9961ZM71.4893 12.9961L66.4893 12.9963L66.4894 17.9961L71.4893 17.9961V12.9961ZM40.6598 57.2822V62.2822H47.9127L45.3328 55.5037L40.6598 57.2822ZM28.0436 24.1338L32.7166 22.3552L28.0436 10.0772L23.3706 22.3552L28.0436 24.1338ZM15.4274 57.2822L10.7544 55.5037L8.17455 62.2822L15.4274 62.2822L15.4274 57.2822ZM28.6542 57.2822V52.2822V57.2822ZM96.8981 57.2822L92.2251 55.5037L89.6452 62.2822L96.8981 62.2822V57.2822ZM110.328 57.2822V52.2822V57.2822ZM109.514 24.1338L114.187 22.3552L109.514 10.0772L104.841 22.3552L109.514 24.1338ZM122.131 57.2822V62.2822H129.383L126.804 55.5037L122.131 57.2822ZM68.989 5.5C67.6083 5.50005 66.489 4.3808 66.4889 3.00008L76.4889 2.99975C76.4888 -1.1424 73.1308 -4.50014 68.9887 -4.5L68.989 5.5ZM71.4889 2.99992C71.489 4.38062 70.3697 5.49995 68.989 5.5L68.9887 -4.5C64.8465 -4.49986 61.4888 -1.14188 61.4889 3.00025L71.4889 2.99992ZM71.4893 12.9959L71.4889 2.99991L61.4889 3.00026L61.4893 12.9963L71.4893 12.9959ZM18.4362 17.9961L66.4893 17.9961V7.9961L18.4362 7.99609L18.4362 17.9961ZM20.9362 15.4961C20.9362 16.8768 19.8169 17.9961 18.4362 17.9961V7.99609C14.294 7.99609 10.9362 11.354 10.9362 15.4961H20.9362ZM18.4362 12.9961C19.8169 12.9961 20.9362 14.1154 20.9362 15.4961H10.9362C10.9362 19.6382 14.294 22.9961 18.4362 22.9961V12.9961ZM25.1112 12.9961H18.4362V22.9961H25.1112V12.9961ZM29.4455 20.4503C29.4189 20.5204 29.3792 20.6028 29.3228 20.6911L20.8997 15.3011C20.5806 15.7998 20.3129 16.3327 20.0996 16.8933L29.4455 20.4503ZM14.7505 59.0608L29.4455 20.4503L20.0996 16.8933L5.40454 55.5037L14.7505 59.0608ZM3.76137 62.2822H10.0775V52.2822H3.76137V62.2822ZM4.9863 60.5938C5.0584 61.1218 4.84832 61.6207 4.56566 61.9156C4.31239 62.1797 4.01407 62.2822 3.76137 62.2822V52.2822C-0.994541 52.2822 -5.6934 56.2955 -4.92176 61.9467L4.9863 60.5938ZM11.7771 74.4012C8.0688 70.6554 5.69703 65.7989 4.9863 60.5938L-4.92176 61.9467C-3.92099 69.2759 -0.579476 76.1335 4.67064 81.4367L11.7771 74.4012ZM28.6542 81.4669C22.3338 81.4669 16.2619 78.9313 11.7771 74.4012L4.67064 81.4367C11.0228 87.853 19.649 91.4669 28.6542 91.4669V81.4669ZM45.5313 74.4012C41.0466 78.9312 34.9747 81.4669 28.6542 81.4669V91.4669C37.6595 91.4669 46.2856 87.853 52.6378 81.4367L45.5313 74.4012ZM52.3222 60.5938C51.6114 65.7989 49.2397 70.6554 45.5313 74.4012L52.6378 81.4367C57.8879 76.1335 61.2295 69.2759 62.2302 61.9467L52.3222 60.5938ZM53.5471 62.2822C53.2944 62.2822 52.9961 62.1797 52.7428 61.9156C52.4601 61.6207 52.2501 61.1218 52.3222 60.5938L62.2302 61.9467C63.0019 56.2955 58.303 52.2822 53.5471 52.2822V62.2822ZM46.0097 62.2822H53.5471V52.2822H46.0097V62.2822ZM26.6417 20.4503L41.3367 59.0608L50.6827 55.5037L35.9877 16.8933L26.6417 20.4503ZM26.7645 20.6911C26.708 20.6028 26.6684 20.5204 26.6417 20.4504L35.9877 16.8933C35.7744 16.3327 35.5067 15.7998 35.1875 15.301L26.7645 20.6911ZM66.4894 12.9961L30.976 12.9961L30.976 22.9961L66.4894 22.9961V12.9961ZM71.4928 117.099L71.4894 17.9959L61.4894 17.9963L61.4928 117.1L71.4928 117.099ZM68.9927 114.599C70.3734 114.599 71.4928 115.719 71.4928 117.099L61.4928 117.1C61.493 121.242 64.851 124.6 68.9931 124.599L68.9927 114.599ZM66.4928 117.1C66.4928 115.719 67.612 114.599 68.9927 114.599L68.9931 124.599C73.1352 124.599 76.493 121.241 76.4928 117.099L66.4928 117.1ZM66.4894 17.9963L66.4928 117.1L76.4928 117.099L76.4894 17.9959L66.4894 17.9963ZM106.582 12.9961L71.4894 12.9961V22.9961L106.582 22.9961V12.9961ZM110.916 20.4503C110.89 20.5204 110.85 20.6028 110.793 20.6911L102.37 15.3011C102.051 15.7998 101.784 16.3327 101.57 16.8933L110.916 20.4503ZM96.2212 59.0608L110.916 20.4503L101.57 16.8933L86.8752 55.5037L96.2212 59.0608ZM85.4352 62.2822H91.5482V52.2822H85.4352V62.2822ZM86.6601 60.5938C86.7322 61.1218 86.5221 61.6207 86.2395 61.9156C85.9862 62.1797 85.6879 62.2822 85.4352 62.2822V52.2822C80.6793 52.2822 75.9804 56.2955 76.7521 61.9467L86.6601 60.5938ZM93.451 74.4012C89.7426 70.6554 87.3709 65.7989 86.6601 60.5938L76.7521 61.9467C77.7528 69.2759 81.0944 76.1335 86.3445 81.4367L93.451 74.4012ZM110.328 81.4669C104.008 81.4669 97.9357 78.9313 93.451 74.4012L86.3445 81.4367C92.6967 87.853 101.323 91.4669 110.328 91.4669V81.4669ZM127.205 74.4012C122.72 78.9312 116.649 81.4669 110.328 81.4669V91.4669C119.333 91.4669 127.959 87.853 134.312 81.4367L127.205 74.4012ZM133.996 60.5938C133.285 65.7989 130.913 70.6554 127.205 74.4012L134.312 81.4367C139.562 76.1335 142.903 69.2759 143.904 61.9467L133.996 60.5938ZM135.221 62.2822C134.968 62.2822 134.67 62.1797 134.417 61.9156C134.134 61.6207 133.924 61.1218 133.996 60.5938L143.904 61.9467C144.676 56.2955 139.977 52.2822 135.221 52.2822V62.2822ZM127.48 62.2822H135.221V52.2822H127.48V62.2822ZM108.112 20.4503L122.807 59.0608L132.153 55.5037L117.458 16.8933L108.112 20.4503ZM108.235 20.6911C108.179 20.6028 108.139 20.5204 108.112 20.4503L117.458 16.8933C117.245 16.3327 116.977 15.7998 116.658 15.3011L108.235 20.6911ZM119.561 12.9961H112.447V22.9961H119.561V12.9961ZM117.061 15.4961C117.061 14.1154 118.18 12.9961 119.561 12.9961V22.9961C123.703 22.9961 127.061 19.6382 127.061 15.4961H117.061ZM119.561 17.9961C118.18 17.9961 117.061 16.8768 117.061 15.4961H127.061C127.061 11.354 123.703 7.9961 119.561 7.9961V17.9961ZM71.4893 17.9961L119.561 17.9961V7.9961L71.4893 7.9961V17.9961ZM66.4889 3.00009L66.4893 12.9963L76.4893 12.9959L76.4889 2.99974L66.4889 3.00009ZM45.3328 55.5037L32.7166 22.3552L23.3706 25.9123L35.9869 59.0608L45.3328 55.5037ZM23.3706 22.3552L10.7544 55.5037L20.1004 59.0608L32.7166 25.9123L23.3706 22.3552ZM15.4274 62.2822L28.6542 62.2822L28.6542 52.2822L15.4274 52.2822L15.4274 62.2822ZM28.6542 62.2822H40.6598V52.2822H28.6542V62.2822ZM96.8981 62.2822L110.328 62.2822V52.2822L96.8981 52.2822V62.2822ZM104.841 22.3552L92.2251 55.5037L101.571 59.0608L114.187 25.9123L104.841 22.3552ZM126.804 55.5037L114.187 22.3552L104.841 25.9123L117.458 59.0608L126.804 55.5037ZM110.328 62.2822H122.131V52.2822H110.328V62.2822Z" fill="#31125F" mask="url(#path-1-inside-1_8636_26738)"/>
</g>
<path id="Vector 450" d="M52.9863 117.164L82.9863 117.164" stroke="#31125F" stroke-width="5" stroke-linecap="round"/>
</g>
</svg>
