<svg width="293" height="144" viewBox="0 0 293 144" fill="none" xmlns="http://www.w3.org/2000/svg">
<path fill-rule="evenodd" clip-rule="evenodd" d="M189.198 144H63.8585C58.5336 144 54.217 140.105 54.217 135.3C54.217 130.495 58.5336 126.6 63.8585 126.6H10.1415C4.81665 126.6 0.5 122.705 0.5 117.9C0.5 113.095 4.81665 109.2 10.1415 109.2H65.2358C70.5607 109.2 74.8774 105.305 74.8774 100.5C74.8774 95.6951 70.5607 91.8 65.2358 91.8H30.8019C25.477 91.8 21.1604 87.9049 21.1604 83.1C21.1604 78.2951 25.477 74.4 30.8019 74.4H85.8962C80.5714 74.4 76.2547 70.5049 76.2547 65.7C76.2547 60.8951 80.5714 57 85.8962 57H164.406C169.731 57 174.047 60.8951 174.047 65.7C174.047 70.5049 169.731 74.4 164.406 74.4H252.557C257.881 74.4 262.198 78.2951 262.198 83.1C262.198 87.9049 257.881 91.8 252.557 91.8H282.858C288.183 91.8 292.5 95.6951 292.5 100.5C292.5 105.305 288.183 109.2 282.858 109.2H256.689C251.364 109.2 247.047 113.095 247.047 117.9C247.047 122.705 251.364 126.6 256.689 126.6H264.953C270.278 126.6 274.594 130.495 274.594 135.3C274.594 140.105 270.278 144 264.953 144H193.33C193.162 144 192.994 143.996 192.827 143.988C191.788 143.94 190.74 143.94 189.701 143.988C189.534 143.996 189.367 144 189.198 144Z" fill="#F1F3F8"/>
<path d="M177.564 27.0978C176.311 25.771 174.579 25 172.759 25H123.923C116.786 25 111.001 30.8203 111 37.9999L111 116C111 123.179 116.786 129 123.923 129L182.075 129C189.212 129 194.998 123.18 194.998 116L195 47.0883C195 45.4262 194.37 43.8285 193.223 42.632C191.103 40.4193 187.562 36.7786 185.308 34.75C182.432 32.1616 179.448 29.0916 177.564 27.0978Z" fill="#468FDC"/>
<path d="M169.154 25V44.5C169.154 48.0899 172.047 51 175.616 51H195M133.617 51H146.54M133.617 70.5H172.385M133.617 90H172.385M185.308 34.75C182.432 32.1616 179.448 29.0916 177.564 27.0978C176.311 25.771 174.579 25 172.759 25H123.923C116.786 25 111.001 30.8203 111 37.9999L111 116C111 123.179 116.786 129 123.923 129L182.075 129C189.212 129 194.998 123.18 194.998 116L195 47.0883C195 45.4262 194.37 43.8285 193.223 42.632C191.103 40.4193 187.562 36.7786 185.308 34.75Z" stroke="#31125F" stroke-width="6" stroke-linecap="round" stroke-linejoin="round"/>
<path d="M77.9976 35.9687C78.7127 34.2292 81.1762 34.2292 81.8913 35.9687L83.0702 38.8363C83.2839 39.3562 83.6967 39.7691 84.2167 39.9828L87.0843 41.1616C88.8238 41.8767 88.8238 44.3403 87.0843 45.0554L84.2167 46.2342C83.6967 46.448 83.2839 46.8608 83.0701 47.3807L81.8913 50.2483C81.1762 51.9878 78.7127 51.9878 77.9976 50.2483L76.8187 47.3807C76.605 46.8608 76.1922 46.448 75.6722 46.2342L72.8046 45.0554C71.0651 44.3403 71.0651 41.8767 72.8046 41.1616L75.6722 39.9828C76.1922 39.7691 76.605 39.3562 76.8187 38.8363L77.9976 35.9687Z" fill="#372A4D"/>
<path d="M215.722 55.8C215.722 57.5673 214.307 59 212.562 59C210.816 59 209.401 57.5673 209.401 55.8C209.401 54.0327 210.816 52.6 212.562 52.6C214.307 52.6 215.722 54.0327 215.722 55.8Z" fill="#372A4D"/>
<path d="M205.365 28.13C205.977 26.6233 208.085 26.6233 208.696 28.13L209.212 29.3989C209.394 29.8493 209.748 30.2069 210.192 30.392L211.446 30.9137C212.934 31.5331 212.934 33.6669 211.446 34.2863L210.192 34.808C209.748 34.9931 209.394 35.3507 209.212 35.8011L208.696 37.07C208.085 38.5767 205.977 38.5767 205.365 37.07L204.85 35.8011C204.667 35.3507 204.314 34.9931 203.869 34.808L202.616 34.2863C201.128 33.6669 201.128 31.5331 202.616 30.9137L203.869 30.392C204.314 30.2069 204.667 29.8493 204.85 29.3989L205.365 28.13Z" fill="#372A4D"/>
<path d="M173.343 27.5H172.5C171.948 27.5 171.5 27.9477 171.5 28.5V44.5C171.5 46.7091 173.291 48.5 175.5 48.5H191.5C192.052 48.5 192.5 48.0523 192.5 47.5V46.6569C192.5 45.596 192.079 44.5786 191.328 43.8284L176.172 28.6716C175.421 27.9214 174.404 27.5 173.343 27.5Z" fill="#7BB9FB"/>
</svg>
