<svg width="124" height="80" viewBox="0 0 124 80" fill="none" xmlns="http://www.w3.org/2000/svg">
<path fill-rule="evenodd" clip-rule="evenodd" d="M79.8647 79.9997H26.8159C24.5622 79.9997 22.7352 78.3694 22.7352 76.3583C22.7352 74.3473 24.5622 72.717 26.8159 72.717H4.08068C1.82698 72.717 0 71.0867 0 69.0756C0 67.0645 1.82698 65.4342 4.08068 65.4342H27.3988C29.6525 65.4342 31.4795 63.8039 31.4795 61.7928C31.4795 59.7818 29.6525 58.1515 27.3988 58.1515H12.825C10.5713 58.1515 8.74431 56.5212 8.74431 54.5101C8.74431 52.499 10.5713 50.8687 12.825 50.8687H36.1431C33.8894 50.8687 32.0625 49.2384 32.0625 47.2273C32.0625 45.2162 33.8894 43.5859 36.1431 43.5859H69.3715C71.6252 43.5859 73.4522 45.2162 73.4522 47.2273C73.4522 49.2384 71.6252 50.8687 69.3715 50.8687H106.681C108.934 50.8687 110.761 52.499 110.761 54.5101C110.761 56.5212 108.934 58.1515 106.681 58.1515H119.506C121.759 58.1515 123.586 59.7818 123.586 61.7928C123.586 63.8039 121.759 65.4342 119.506 65.4342H108.429C106.176 65.4342 104.349 67.0645 104.349 69.0756C104.349 71.0867 106.176 72.717 108.429 72.717H111.927C114.181 72.717 116.008 74.3473 116.008 76.3583C116.008 78.3694 114.181 79.9997 111.927 79.9997H81.6135C81.0325 79.9997 80.4457 79.9997 79.8647 79.9997Z" fill="#F1F3F8"/>
<path d="M56.6367 41.4844H82.9973" stroke="#E6E6E6" stroke-width="6" stroke-linecap="round"/>
<rect x="42.5" y="6.5" width="50" height="58" rx="3.5" fill="white" stroke="#3F4159"/>
<path d="M54 30H81" stroke="#E5E5EF" stroke-width="6" stroke-linecap="round"/>
<path d="M54 40H81" stroke="#E5E5EF" stroke-width="6" stroke-linecap="round"/>
<path d="M54 50H81" stroke="#E5E5EF" stroke-width="6" stroke-linecap="round"/>
<path d="M54 20H70" stroke="#E5E5EF" stroke-width="6" stroke-linecap="round"/>
<path fill-rule="evenodd" clip-rule="evenodd" d="M85.5881 36.3814C89.2986 36.3814 92.7471 35.2545 95.6128 33.3229L107.345 44.5726L111.599 39.6145L100.279 28.7602C102.372 25.8042 103.602 22.1896 103.602 18.2864C103.602 8.29281 95.537 0.191406 85.5881 0.191406C75.6393 0.191406 67.5742 8.29281 67.5742 18.2864C67.5742 28.28 75.6393 36.3814 85.5881 36.3814ZM100.953 18.2804C100.953 26.741 94.1248 33.5998 85.702 33.5998C77.2792 33.5998 70.4512 26.741 70.4512 18.2804C70.4512 9.81968 77.2792 2.96094 85.702 2.96094C94.1248 2.96094 100.953 9.81968 100.953 18.2804Z" fill="#121433"/>
<path d="M85.7042 33.9048C94.3796 33.9048 101.412 26.9052 101.412 18.2708C101.412 9.63633 94.3796 2.63672 85.7042 2.63672C77.0289 2.63672 69.9961 9.63633 69.9961 18.2708C69.9961 26.9052 77.0289 33.9048 85.7042 33.9048Z" fill="#FFC46C"/>
<path d="M88.6831 18.5L91.5847 15.6097C91.8565 15.3237 92.0055 14.9437 91.9998 14.5504C91.9942 14.157 91.8345 13.7813 91.5547 13.5032C91.2748 13.225 90.8968 13.0663 90.5011 13.0607C90.1053 13.0551 89.7229 13.2031 89.4353 13.4733L86.5272 16.3637L83.6257 13.4733C83.486 13.3265 83.3182 13.2089 83.1321 13.1276C82.9459 13.0464 82.7453 13.003 82.542 13.0002C82.3387 12.9973 82.137 13.035 81.9486 13.111C81.7602 13.187 81.5891 13.2997 81.4453 13.4426C81.3016 13.5855 81.1881 13.7556 81.1117 13.9428C81.0352 14.13 80.9973 14.3306 81.0002 14.5326C81.003 14.7347 81.0466 14.9341 81.1284 15.1191C81.2102 15.3041 81.3285 15.4709 81.4762 15.6097L84.3827 18.5L81.4762 21.3903C81.3285 21.5291 81.2102 21.6959 81.1284 21.8809C81.0466 22.0659 81.003 22.2653 81.0002 22.4674C80.9973 22.6694 81.0352 22.87 81.1117 23.0572C81.1881 23.2444 81.3016 23.4145 81.4453 23.5574C81.5891 23.7003 81.7602 23.813 81.9486 23.889C82.137 23.965 82.3387 24.0027 82.542 23.9998C82.7453 23.997 82.9459 23.9536 83.1321 23.8724C83.3182 23.7911 83.486 23.6735 83.6257 23.5267L86.5337 20.6363L89.4417 23.5267C89.7322 23.7809 90.1092 23.9155 90.496 23.9031C90.8828 23.8906 91.2503 23.732 91.5235 23.4596C91.7967 23.1872 91.9552 22.8215 91.9666 22.437C91.9779 22.0525 91.8414 21.6782 91.5847 21.3903L88.6831 18.5Z" fill="#121433"/>
<path d="M107.35 44.5664L111.604 39.6083L112.245 40.2227C112.866 40.8189 113.239 41.6517 113.279 42.538C113.32 43.4243 113.026 44.2914 112.462 44.9486C111.899 45.6059 111.111 45.9994 110.272 46.0426C109.434 46.0858 108.614 45.7751 107.992 45.179L107.351 44.5645L107.35 44.5664Z" fill="#3F4159"/>
</svg>
