<svg width="292" height="144" viewBox="0 0 292 144" fill="none" xmlns="http://www.w3.org/2000/svg">
<path fill-rule="evenodd" clip-rule="evenodd" d="M188.698 144H63.3585C58.0336 144 53.717 140.105 53.717 135.3C53.717 130.495 58.0336 126.6 63.3585 126.6H9.64151C4.31665 126.6 0 122.705 0 117.9C0 113.095 4.31665 109.2 9.64151 109.2H64.7358C70.0607 109.2 74.3774 105.305 74.3774 100.5C74.3774 95.6951 70.0607 91.8 64.7358 91.8H30.3019C24.977 91.8 20.6604 87.9049 20.6604 83.1C20.6604 78.2951 24.977 74.4 30.3019 74.4H85.3962C80.0714 74.4 75.7547 70.5049 75.7547 65.7C75.7547 60.8951 80.0714 57 85.3962 57H163.906C169.231 57 173.547 60.8951 173.547 65.7C173.547 70.5049 169.231 74.4 163.906 74.4H252.057C257.381 74.4 261.698 78.2951 261.698 83.1C261.698 87.9049 257.381 91.8 252.057 91.8H282.358C287.683 91.8 292 95.6951 292 100.5C292 105.305 287.683 109.2 282.358 109.2H256.189C250.864 109.2 246.547 113.095 246.547 117.9C246.547 122.705 250.864 126.6 256.189 126.6H264.453C269.778 126.6 274.094 130.495 274.094 135.3C274.094 140.105 269.778 144 264.453 144H192.83C192.662 144 192.494 143.996 192.327 143.988C191.288 143.94 190.24 143.94 189.201 143.988C189.034 143.996 188.867 144 188.698 144Z" fill="#F1F3F8"/>
<path d="M77.4976 35.9706C78.2127 34.2311 80.6762 34.2311 81.3913 35.9706L82.5702 38.8382C82.7839 39.3582 83.1967 39.771 83.7167 39.9848L86.5843 41.1636C88.3238 41.8787 88.3238 44.3422 86.5843 45.0573L83.7167 46.2362C83.1967 46.4499 82.7839 46.8627 82.5701 47.3827L81.3913 50.2503C80.6762 51.9898 78.2127 51.9898 77.4976 50.2503L76.3187 47.3827C76.105 46.8627 75.6922 46.4499 75.1722 46.2362L72.3046 45.0573C70.5651 44.3422 70.5651 41.8787 72.3046 41.1636L75.1722 39.9848C75.6922 39.771 76.105 39.3582 76.3187 38.8382L77.4976 35.9706Z" fill="#372A4D"/>
<path d="M215.222 55.8C215.222 57.5673 213.807 59 212.062 59C210.316 59 208.901 57.5673 208.901 55.8C208.901 54.0327 210.316 52.6 212.062 52.6C213.807 52.6 215.222 54.0327 215.222 55.8Z" fill="#372A4D"/>
<path d="M204.865 28.13C205.477 26.6233 207.585 26.6233 208.196 28.13L208.712 29.3989C208.894 29.8493 209.248 30.2069 209.692 30.392L210.946 30.9137C212.434 31.5331 212.434 33.6669 210.946 34.2863L209.692 34.808C209.248 34.9931 208.894 35.3507 208.712 35.8011L208.196 37.07C207.585 38.5767 205.477 38.5767 204.865 37.07L204.35 35.8011C204.167 35.3507 203.814 34.9931 203.369 34.808L202.116 34.2863C200.628 33.6669 200.628 31.5331 202.116 30.9137L203.369 30.392C203.814 30.2069 204.167 29.8493 204.35 29.3989L204.865 28.13Z" fill="#372A4D"/>
<path d="M172.843 27.5H172C171.448 27.5 171 27.9477 171 28.5V44.5C171 46.7091 172.791 48.5 175 48.5H191C191.552 48.5 192 48.0523 192 47.5V46.6569C192 45.596 191.579 44.5786 190.828 43.8284L175.672 28.6716C174.921 27.9214 173.904 27.5 172.843 27.5Z" fill="#7BB9FB"/>
<path d="M110 26.5385C110 20.1659 115.117 15 121.429 15H178.571C184.883 15 190 20.1659 190 26.5385V103.462C190 109.834 184.883 115 178.571 115H121.429C115.117 115 110 109.834 110 103.462V26.5385Z" fill="#FFDDAB"/>
<path fill-rule="evenodd" clip-rule="evenodd" d="M105 25C105 16.7157 111.716 10 120 10H180C188.284 10 195 16.7157 195 25V105C195 113.284 188.284 120 180 120H120C111.716 120 105 113.284 105 105V25ZM120 16C115.029 16 111 20.0294 111 25V105C111 109.971 115.029 114 120 114H180C184.971 114 189 109.971 189 105V25C189 20.0294 184.971 16 180 16H120Z" fill="#31125F"/>
<path d="M128.117 79.5H141.04M128.117 60H166.885M128.117 40.5H166.885" stroke="#31125F" stroke-width="6" stroke-linecap="round" stroke-linejoin="round"/>
<path d="M215 100C215 114.359 203.359 126 189 126C174.641 126 163 114.359 163 100C163 85.6406 174.641 74 189 74C203.359 74 215 85.6406 215 100Z" fill="#4690DC"/>
<path fill-rule="evenodd" clip-rule="evenodd" d="M189 76.5C176.021 76.5 165.5 87.0213 165.5 100C165.5 112.979 176.021 123.5 189 123.5C201.979 123.5 212.5 112.979 212.5 100C212.5 87.0213 201.979 76.5 189 76.5ZM160.5 100C160.5 84.2599 173.26 71.5 189 71.5C204.74 71.5 217.5 84.2599 217.5 100C217.5 115.74 204.74 128.5 189 128.5C173.26 128.5 160.5 115.74 160.5 100Z" fill="#31125F"/>
<path fill-rule="evenodd" clip-rule="evenodd" d="M187.5 88.5C181.977 88.5 177.5 92.9772 177.5 98.5C177.5 104.023 181.977 108.5 187.5 108.5C189.355 108.5 191.091 107.995 192.58 107.115L197.232 111.768C198.209 112.744 199.791 112.744 200.768 111.768C201.744 110.791 201.744 109.209 200.768 108.232L196.115 103.58C196.995 102.091 197.5 100.355 197.5 98.5C197.5 92.9772 193.023 88.5 187.5 88.5ZM182.5 98.5C182.5 95.7386 184.739 93.5 187.5 93.5C190.261 93.5 192.5 95.7386 192.5 98.5C192.5 101.261 190.261 103.5 187.5 103.5C184.739 103.5 182.5 101.261 182.5 98.5Z" fill="white"/>
</svg>
