<svg width="225" height="151" viewBox="0 0 225 151" fill="none" xmlns="http://www.w3.org/2000/svg">
<path fill-rule="evenodd" clip-rule="evenodd" d="M145.319 141H48.7933C44.6926 141 41.3682 138 41.3682 134.3C41.3682 130.6 44.6926 127.6 48.7933 127.6H7.42507C3.32432 127.6 0 124.6 0 120.9C0 117.2 3.32432 114.2 7.42507 114.2H49.854C53.9548 114.2 57.2791 111.2 57.2791 107.5C57.2791 103.8 53.9548 100.8 49.854 100.8H23.3359C19.2352 100.8 15.9109 97.8003 15.9109 94.1C15.9109 90.3997 19.2352 87.4 23.3359 87.4H65.7649C61.6642 87.4 58.3398 84.4003 58.3398 80.7C58.3398 76.9997 61.6642 74 65.7649 74H126.226C130.327 74 133.651 76.9997 133.651 80.7C133.651 84.4003 130.327 87.4 126.226 87.4H194.113C198.213 87.4 201.538 90.3997 201.538 94.1C201.538 97.8003 198.213 100.8 194.113 100.8H217.448C221.549 100.8 224.874 103.8 224.874 107.5C224.874 111.2 221.549 114.2 217.448 114.2H197.295C193.194 114.2 189.87 117.2 189.87 120.9C189.87 124.6 193.194 127.6 197.295 127.6H203.659C207.76 127.6 211.084 130.6 211.084 134.3C211.084 138 207.76 141 203.659 141H148.501C148.493 141 148.485 141 148.476 141C147.436 140.997 146.385 140.997 145.344 141C145.336 141 145.328 141 145.319 141Z" fill="#F1F3F8"/>
<path d="M165.177 82.5883C165.177 108.318 144.318 129.177 118.588 129.177C92.8583 129.177 72 108.318 72 82.5883C72 56.8583 92.8583 36 118.588 36C144.318 36 165.177 56.8583 165.177 82.5883Z" fill="#E9F6ED"/>
<path d="M153.478 82.5896C153.478 101.859 137.857 117.48 118.588 117.48C99.3181 117.48 83.6973 101.859 83.6973 82.5896C83.6973 63.3201 99.3181 47.6992 118.588 47.6992C137.857 47.6992 153.478 63.3201 153.478 82.5896Z" stroke="#26AE60" stroke-width="14.8" stroke-miterlimit="10"/>
<path d="M149.708 82.5871C149.708 99.7733 135.775 113.705 118.589 113.705C101.403 113.705 87.4707 99.7733 87.4707 82.5871C87.4707 65.4009 101.403 51.4688 118.589 51.4688C135.775 51.4688 149.708 65.4009 149.708 82.5871Z" fill="#26AE60"/>
<path d="M76.2226 49.4206C76.1678 49.3386 76.2708 49.2436 76.3484 49.3045C77.0609 49.8629 78.4108 50.8603 78.9659 50.8629C79.5177 50.8654 80.8639 49.8923 81.5848 49.3386C81.6633 49.2783 81.7653 49.3752 81.7089 49.4565C81.2093 50.1774 80.3509 51.4948 80.3484 52.0413C80.3457 52.6166 81.2836 54.0549 81.7598 54.748C81.8138 54.8265 81.7202 54.9221 81.6407 54.8694C80.9493 54.4115 79.5271 53.518 78.9537 53.5153C78.3779 53.5127 76.9379 54.4004 76.2456 54.8502C76.166 54.9019 76.0732 54.8063 76.127 54.7282C76.5996 54.0419 77.5391 52.6054 77.5418 52.0283C77.5443 51.4791 76.7055 50.1436 76.2226 49.4206Z" fill="#26AE60"/>
<path d="M165.938 88.4002C165.835 88.3268 165.915 88.1656 166.036 88.2031C167.147 88.5474 169.224 89.127 169.892 88.876C170.556 88.6264 171.727 86.8416 172.339 85.8468C172.405 85.7385 172.572 85.808 172.542 85.9316C172.272 87.0259 171.844 89.0006 172.092 89.6579C172.352 90.3499 174.136 91.6475 175.025 92.2616C175.126 92.3312 175.057 92.4888 174.938 92.462C173.898 92.2288 171.781 91.807 171.092 92.0663C170.399 92.3267 169.077 94.0519 168.451 94.9089C168.379 95.0074 168.224 94.9352 168.253 94.8167C168.506 93.7763 168.977 91.6214 168.716 90.9273C168.467 90.2667 166.849 89.0472 165.938 88.4002Z" fill="#26AE60"/>
<path d="M147.697 47.9712C147.606 48.0182 147.52 47.9011 147.592 47.8281C148.25 47.1579 149.433 45.8813 149.5 45.3094C149.566 44.7409 148.718 43.2413 148.23 42.4345C148.177 42.3466 148.288 42.2526 148.366 42.3201C149.051 42.9181 150.31 43.9545 150.873 44.0199C151.466 44.0889 153.057 43.2877 153.826 42.8766C153.913 42.83 154.001 42.9375 153.937 43.0133C153.386 43.6733 152.301 45.0365 152.232 45.6272C152.163 46.2205 152.913 47.8069 153.297 48.5723C153.341 48.6603 153.232 48.7449 153.157 48.6805C152.504 48.1144 151.132 46.9806 150.537 46.9115C149.971 46.8456 148.498 47.5566 147.697 47.9712Z" fill="#26AE60"/>
<path d="M81.1918 120.444C81.0913 120.59 80.8649 120.481 80.915 120.311C81.3755 118.754 82.1468 115.844 81.7843 114.917C81.424 113.995 78.9117 112.393 77.5121 111.557C77.3597 111.466 77.4538 111.231 77.6267 111.272C79.159 111.629 81.9229 112.189 82.8359 111.833C83.7971 111.457 85.5758 108.943 86.417 107.69C86.5123 107.549 86.7335 107.642 86.6982 107.809C86.3915 109.264 85.841 112.226 86.2155 113.184C86.5915 114.146 89.0234 115.961 90.2309 116.818C90.3697 116.917 90.2716 117.135 90.1058 117.097C88.649 116.762 85.6328 116.145 84.6688 116.521C83.7512 116.88 82.0784 119.161 81.1918 120.444Z" fill="#26AE60"/>
<path d="M131.997 73.4844L114.825 88.9439L106.83 80.3153" stroke="white" stroke-width="8" stroke-linecap="round" stroke-linejoin="round"/>
</svg>
