<svg width="156" height="83" viewBox="0 0 156 83" fill="none" xmlns="http://www.w3.org/2000/svg">
<path fill-rule="evenodd" clip-rule="evenodd" d="M100.811 82.9982H33.8491C31.0043 82.9982 28.6981 81.051 28.6981 78.6491C28.6981 76.2472 31.0043 74.3001 33.8491 74.3001H5.15094C2.30616 74.3001 0 72.353 0 69.9511C0 67.5492 2.30616 65.602 5.15094 65.602H34.5849C37.4297 65.602 39.7359 63.6549 39.7359 61.253C39.7359 58.8511 37.4297 56.904 34.5849 56.904H16.1887C13.3439 56.904 11.0377 54.9568 11.0377 52.5549C11.0377 50.153 13.3439 48.2059 16.1887 48.2059H45.6226C42.7779 48.2059 40.4717 46.2588 40.4717 43.8568C40.4717 41.4549 42.7779 39.5078 45.6226 39.5078H87.566C90.4108 39.5078 92.717 41.4549 92.717 43.8568C92.717 46.2588 90.4108 48.2059 87.566 48.2059H134.66C137.505 48.2059 139.811 50.153 139.811 52.5549C139.811 54.9568 137.505 56.904 134.66 56.904H150.849C153.694 56.904 156 58.8511 156 61.253C156 63.6549 153.694 65.602 150.849 65.602H136.868C134.023 65.602 131.717 67.5492 131.717 69.9511C131.717 72.353 134.023 74.3001 136.868 74.3001H141.283C144.128 74.3001 146.434 76.2472 146.434 78.6491C146.434 81.051 144.128 82.9982 141.283 82.9982H103.019C102.894 82.9982 102.769 82.9944 102.647 82.987C102.16 82.9576 101.67 82.9576 101.184 82.987C101.061 82.9944 100.937 82.9982 100.811 82.9982Z" fill="#F1F3F8"/>
<path d="M103.438 60.0783V14.5793C103.438 10.3912 100.042 6.99609 95.8543 6.99609H67.4107H66.7915H60.5832C56.3951 6.99609 53 10.3912 53 14.5793V60.0783C53 64.2664 56.3951 67.6615 60.5832 67.6615H95.8543C100.042 67.6615 103.438 64.2664 103.438 60.0783Z" fill="#FFDDAB"/>
<path d="M67.4107 6.99609H60.5832C56.3951 6.99609 53 10.3912 53 14.5793V60.0783C53 64.2664 56.3951 67.6615 60.5832 67.6615H95.8543C100.042 67.6615 103.437 64.2664 103.437 60.0783V14.5793C103.437 10.3912 100.042 6.99609 95.8543 6.99609H66.7915" stroke="#4E2788" stroke-width="4" stroke-linecap="round" stroke-linejoin="round"/>
<path d="M66.999 10.0129C66.999 5.82479 70.3941 2.42969 74.5822 2.42969H80.8518C85.0399 2.42969 88.435 5.82479 88.435 10.0129V12.5172H66.999V10.0129Z" fill="#FFDDAB" stroke="#4E2788" stroke-width="4" stroke-linecap="round" stroke-linejoin="round"/>
<path d="M75 27L90 27" stroke="#4E2788" stroke-width="4" stroke-linecap="round" stroke-linejoin="round"/>
<path d="M75 38L90 38" stroke="#4E2788" stroke-width="4" stroke-linecap="round" stroke-linejoin="round"/>
<path d="M75 49L90 49" stroke="#4E2788" stroke-width="4" stroke-linecap="round" stroke-linejoin="round"/>
<circle cx="67.2539" cy="27" r="2.5" fill="#4E2788" stroke="#4E2788"/>
<circle cx="67.2539" cy="38" r="2.5" fill="#4E2788" stroke="#4E2788"/>
<circle cx="67" cy="49" r="2.5" fill="#4E2788" stroke="#4E2788"/>
</svg>
