<svg width="129" height="41" viewBox="0 0 129 41" fill="none" xmlns="http://www.w3.org/2000/svg">
<path d="M6.54457 1.59507C5.88388 9.51068 3.03947 17.1407 2.43234 25.0167C2.32903 26.3522 0.962397 30.5644 1.69898 31.7933M1.69898 31.7933C2.65623 33.3883 7.39202 31.91 8.50679 31.5963C14.1272 30.014 23.9027 27.1649 29.8194 24.7833M1.69898 31.7933C13.9581 13.9523 45.1965 -0.00897476 60.6014 12.2418M60.6014 12.2418C64.6799 15.4853 67.6485 20.5659 68.8613 27.8983C71.154 41.7621 52.4274 43.1385 49.9995 30.443C48.6598 23.4335 54.6774 16.6646 60.6014 12.2418ZM60.6014 12.2418C62.3029 10.9715 63.9967 9.8948 65.5062 9.06149C84.2212 -1.26986 111.586 2.47172 127.846 15.706" stroke="white" stroke-width="2" stroke-miterlimit="1.5" stroke-linecap="round" stroke-linejoin="round"/>
</svg>
