<svg width="292" height="157" viewBox="0 0 292 157" fill="none" xmlns="http://www.w3.org/2000/svg">
<path fill-rule="evenodd" clip-rule="evenodd" d="M188.698 144H63.3585C58.0336 144 53.717 140.105 53.717 135.3C53.717 130.495 58.0336 126.6 63.3585 126.6H9.64151C4.31665 126.6 0 122.705 0 117.9C0 113.095 4.31665 109.2 9.64151 109.2H64.7358C70.0607 109.2 74.3774 105.305 74.3774 100.5C74.3774 95.6951 70.0607 91.8 64.7358 91.8H30.3019C24.977 91.8 20.6604 87.9049 20.6604 83.1C20.6604 78.2951 24.977 74.4 30.3019 74.4H85.3962C80.0714 74.4 75.7547 70.5049 75.7547 65.7C75.7547 60.8951 80.0714 57 85.3962 57H163.906C169.231 57 173.547 60.8951 173.547 65.7C173.547 70.5049 169.231 74.4 163.906 74.4H252.057C257.381 74.4 261.698 78.2951 261.698 83.1C261.698 87.9049 257.381 91.8 252.057 91.8H282.358C287.683 91.8 292 95.6951 292 100.5C292 105.305 287.683 109.2 282.358 109.2H256.189C250.864 109.2 246.547 113.095 246.547 117.9C246.547 122.705 250.864 126.6 256.189 126.6H264.453C269.778 126.6 274.094 130.495 274.094 135.3C274.094 140.105 269.778 144 264.453 144H192.83C192.662 144 192.494 143.996 192.327 143.988C191.288 143.94 190.24 143.94 189.201 143.988C189.034 143.996 188.867 144 188.698 144Z" fill="#F1F3F8"/>
<path d="M140.888 87.6598C122.316 87.6598 108.16 92.0866 98.5879 99.5467C88.9615 107.049 84.166 117.479 84.166 128.941C84.166 133.464 87.5096 137.611 92.1946 137.611H189.582C194.267 137.611 197.61 133.464 197.61 128.941C197.61 117.479 192.815 107.049 183.189 99.5467C173.617 92.0866 159.461 87.6598 140.888 87.6598ZM140.888 72.6779C153.509 72.6779 163.722 62.4048 163.722 49.7555C163.722 37.1061 153.509 26.833 140.888 26.833C128.267 26.833 118.055 37.1061 118.055 49.7555C118.055 62.4049 128.267 72.6779 140.888 72.6779Z" fill="#4690DC" stroke="#31125F" stroke-width="5"/>
<mask id="mask0_7704_42213" style="mask-type:alpha" maskUnits="userSpaceOnUse" x="86" y="29" width="110" height="107">
<path d="M86.666 128.941C86.666 107.523 104.482 90.1598 140.888 90.1598C177.295 90.1598 195.11 107.523 195.11 128.941C195.11 132.349 192.635 135.111 189.582 135.111H92.1946C89.1412 135.111 86.666 132.349 86.666 128.941Z" fill="#4690DC"/>
<path d="M161.222 49.7555C161.222 61.0345 152.118 70.1779 140.888 70.1779C129.658 70.1779 120.555 61.0345 120.555 49.7555C120.555 38.4764 129.658 29.333 140.888 29.333C152.118 29.333 161.222 38.4764 161.222 49.7555Z" fill="#4690DC"/>
</mask>
<g mask="url(#mask0_7704_42213)">
<path opacity="0.2" d="M76.8887 129.133C76.8887 108.379 91.1998 91.5552 120.444 91.5552C149.689 91.5552 164 108.379 164 129.133C164 132.434 162.012 135.111 159.559 135.111H81.3296C78.877 135.111 76.8887 132.434 76.8887 129.133Z" fill="white"/>
</g>
<path d="M66.4976 35.9716C67.2127 34.2321 69.6762 34.2321 70.3913 35.9716L71.5702 38.8392C71.7839 39.3591 72.1967 39.772 72.7167 39.9857L75.5843 41.1646C77.3238 41.8797 77.3238 44.3432 75.5843 45.0583L72.7167 46.2371C72.1967 46.4509 71.7839 46.8637 71.5701 47.3837L70.3913 50.2513C69.6762 51.9908 67.2127 51.9908 66.4976 50.2513L65.3187 47.3837C65.105 46.8637 64.6922 46.4509 64.1722 46.2371L61.3046 45.0583C59.5651 44.3432 59.5651 41.8797 61.3046 41.1646L64.1722 39.9857C64.6922 39.772 65.105 39.3591 65.3187 38.8392L66.4976 35.9716Z" fill="#372A4D"/>
<path d="M224.445 123.555C224.445 138.283 212.506 150.222 197.778 150.222C183.05 150.222 171.111 138.283 171.111 123.555C171.111 108.828 183.05 96.8887 197.778 96.8887C212.506 96.8887 224.445 108.828 224.445 123.555Z" fill="#10B958"/>
<path fill-rule="evenodd" clip-rule="evenodd" d="M230.445 123.555C230.445 141.597 215.819 156.222 197.778 156.222C179.737 156.222 165.111 141.597 165.111 123.555C165.111 105.514 179.737 90.8887 197.778 90.8887C215.819 90.8887 230.445 105.514 230.445 123.555ZM197.778 150.222C212.506 150.222 224.445 138.283 224.445 123.555C224.445 108.828 212.506 96.8887 197.778 96.8887C183.05 96.8887 171.111 108.828 171.111 123.555C171.111 138.283 183.05 150.222 197.778 150.222Z" fill="#F1F3F8"/>
<path d="M210.223 115.556L193.846 130.667L186.223 122.233" stroke="white" stroke-width="5" stroke-linecap="round" stroke-linejoin="round"/>
<path d="M195.111 58.133C195.111 59.9003 193.696 61.333 191.95 61.333C190.205 61.333 188.79 59.9003 188.79 58.133C188.79 56.3657 190.205 54.933 191.95 54.933C193.696 54.933 195.111 56.3657 195.111 58.133Z" fill="#372A4D"/>
<path d="M184.754 30.463C185.366 28.9563 187.473 28.9563 188.085 30.463L188.6 31.7319C188.783 32.1823 189.136 32.5399 189.581 32.725L190.834 33.2467C192.322 33.8661 192.322 35.9999 190.834 36.6193L189.581 37.141C189.136 37.3261 188.783 37.6837 188.6 38.1341L188.085 39.403C187.473 40.9097 185.366 40.9097 184.754 39.403L184.239 38.1341C184.056 37.6837 183.703 37.3261 183.258 37.141L182.005 36.6193C180.517 35.9999 180.517 33.8661 182.005 33.2467L183.258 32.725C183.703 32.5399 184.056 32.1823 184.239 31.7319L184.754 30.463Z" fill="#372A4D"/>
</svg>
