<svg width="292" height="144" viewBox="0 0 292 144" fill="none" xmlns="http://www.w3.org/2000/svg">
<path fill-rule="evenodd" clip-rule="evenodd" d="M188.698 144H63.3585C58.0336 144 53.717 140.105 53.717 135.3C53.717 130.495 58.0336 126.6 63.3585 126.6H9.64151C4.31665 126.6 0 122.705 0 117.9C0 113.095 4.31665 109.2 9.64151 109.2H64.7358C70.0607 109.2 74.3774 105.305 74.3774 100.5C74.3774 95.6951 70.0607 91.8 64.7358 91.8H30.3019C24.977 91.8 20.6604 87.9049 20.6604 83.1C20.6604 78.2951 24.977 74.4 30.3019 74.4H85.3962C80.0714 74.4 75.7547 70.5049 75.7547 65.7C75.7547 60.8951 80.0714 57 85.3962 57H163.906C169.231 57 173.547 60.8951 173.547 65.7C173.547 70.5049 169.231 74.4 163.906 74.4H252.057C257.381 74.4 261.698 78.2951 261.698 83.1C261.698 87.9049 257.381 91.8 252.057 91.8H282.358C287.683 91.8 292 95.6951 292 100.5C292 105.305 287.683 109.2 282.358 109.2H256.189C250.864 109.2 246.547 113.095 246.547 117.9C246.547 122.705 250.864 126.6 256.189 126.6H264.453C269.778 126.6 274.094 130.495 274.094 135.3C274.094 140.105 269.778 144 264.453 144H192.83C192.662 144 192.494 143.996 192.327 143.988C191.288 143.94 190.24 143.94 189.201 143.988C189.034 143.996 188.867 144 188.698 144Z" fill="#F1F3F8"/>
<path d="M217.832 112.156L158.392 9.25638C155.106 3.58121 146.892 3.58121 143.607 9.25638L84.1668 112.156C80.8812 117.831 84.9136 125 91.4848 125H210.365C217.085 125 221.118 117.831 217.832 112.156Z" fill="#31125F"/>
<path fill-rule="evenodd" clip-rule="evenodd" d="M143.607 9.25638C146.892 3.58121 155.106 3.58121 158.392 9.25638L217.832 112.156C221.118 117.831 217.085 125 210.365 125H91.4848C84.9136 125 80.8812 117.831 84.1668 112.156L143.607 9.25638ZM79.8397 109.651L139.28 6.75119C144.491 -2.2504 157.508 -2.2504 162.719 6.7512L222.159 109.651C222.16 109.652 222.161 109.654 222.162 109.655M222.162 109.655C227.363 118.646 220.955 130 210.365 130H91.4848C80.9693 130 74.6736 118.581 79.8372 109.655C79.8375 109.655 79.8378 109.654 79.8381 109.654C79.8386 109.653 79.8391 109.652 79.8397 109.651" fill="#31125F"/>
<path d="M217.832 112.156L158.392 9.25638C155.106 3.58121 146.892 3.58121 143.607 9.25638L84.1668 112.156C80.8812 117.831 84.9136 125 91.4848 125H210.365C217.085 125 221.118 117.831 217.832 112.156ZM149.133 40.7685C152.717 39.8724 156.302 41.6646 157.944 44.9502C158.542 46.145 158.691 47.4891 158.542 48.6839C158.243 52.4176 158.094 56.1512 157.944 60.0342C157.646 65.8587 157.198 71.8326 156.899 77.6571C156.75 79.4493 156.75 81.2414 156.6 83.183C156.451 86.3192 154.061 88.7087 150.925 88.7087C147.938 88.7087 145.399 86.3192 145.25 83.3323C144.802 74.2221 144.204 65.112 143.756 56.0019C143.607 53.6123 143.458 51.0734 143.308 48.6839C143.308 45.0996 145.698 41.6646 149.133 40.7685ZM151.074 109.169C146.893 109.169 143.607 105.734 143.607 101.553C143.607 97.3709 147.042 93.9359 151.224 93.9359C155.405 93.9359 158.691 97.3709 158.691 101.702C158.542 105.734 155.107 109.169 151.074 109.169Z" fill="url(#paint0_linear_7704_42174)"/>
<defs>
<linearGradient id="paint0_linear_7704_42174" x1="208.791" y1="11.774" x2="97.4831" y2="124.54" gradientUnits="userSpaceOnUse">
<stop stop-color="#FFDC63"/>
<stop offset="1" stop-color="#FF9900"/>
</linearGradient>
</defs>
</svg>
