<svg width="163" height="50" viewBox="0 0 163 50" fill="none" xmlns="http://www.w3.org/2000/svg">
<path d="M159.523 32.4263V18.2678L156.146 20.3223V16.6094L159.523 14.6045H163V32.4263H159.523Z" fill="#331B6D"/>
<path d="M138.389 32.4263V14.6045H141.842L149.672 26.4857V14.6045H153.124V32.4263H149.672L141.842 20.5451V32.4263H138.389Z" fill="#331B6D"/>
<path d="M126.912 32.7976C125.11 32.7976 123.555 32.4098 122.246 31.6342C120.945 30.8586 119.94 29.7737 119.232 28.3793C118.531 26.9849 118.181 25.3636 118.181 23.5154C118.181 21.6672 118.531 20.0459 119.232 18.6515C119.94 17.2571 120.945 16.1721 122.246 15.3966C123.555 14.621 125.11 14.2332 126.912 14.2332C128.713 14.2332 130.264 14.621 131.565 15.3966C132.874 16.1721 133.879 17.2571 134.579 18.6515C135.288 20.0459 135.642 21.6672 135.642 23.5154C135.642 25.3636 135.288 26.9849 134.579 28.3793C133.879 29.7737 132.874 30.8586 131.565 31.6342C130.264 32.4098 128.713 32.7976 126.912 32.7976ZM126.912 29.6293C128.054 29.6458 129.005 29.4024 129.763 28.8991C130.522 28.3958 131.089 27.6821 131.465 26.758C131.848 25.8339 132.04 24.753 132.04 23.5154C132.04 22.2778 131.848 21.2052 131.465 20.2976C131.089 19.39 130.522 18.6845 129.763 18.1812C129.005 17.6779 128.054 17.418 126.912 17.4015C125.769 17.385 124.819 17.6284 124.06 18.1317C123.301 18.635 122.73 19.3487 122.346 20.2728C121.971 21.1969 121.783 22.2778 121.783 23.5154C121.783 24.753 121.971 25.8256 122.346 26.7332C122.73 27.6408 123.301 28.3463 124.06 28.8496C124.819 29.3529 125.769 29.6128 126.912 29.6293Z" fill="#331B6D"/>
<path d="M111.779 32.4263V14.6045H115.182V32.4263H111.779Z" fill="#331B6D"/>
<path d="M101.3 32.7976C99.9659 32.7976 98.761 32.5666 97.6853 32.1045C96.6179 31.6342 95.7382 30.9659 95.0461 30.0996C94.3623 29.225 93.9287 28.1854 93.7452 26.9807L97.2975 26.4609C97.5477 27.4841 98.0647 28.272 98.8485 28.8248C99.6324 29.3776 100.525 29.654 101.525 29.654C102.084 29.654 102.626 29.5674 103.151 29.3941C103.677 29.2209 104.106 28.9651 104.44 28.6268C104.782 28.2885 104.952 27.8718 104.952 27.3768C104.952 27.1953 104.923 27.022 104.865 26.857C104.815 26.6837 104.727 26.5228 104.602 26.3743C104.477 26.2258 104.298 26.0855 104.064 25.9535C103.839 25.8215 103.552 25.7019 103.201 25.5946L98.5233 24.2332C98.1731 24.1342 97.7645 23.9939 97.2975 23.8124C96.8389 23.6309 96.3928 23.371 95.9592 23.0327C95.5255 22.6944 95.1628 22.2489 94.8709 21.6961C94.5874 21.135 94.4457 20.4296 94.4457 19.5797C94.4457 18.3834 94.75 17.3891 95.3588 16.5971C95.9675 15.805 96.7805 15.215 97.7978 14.8272C98.8152 14.4395 99.9409 14.2497 101.175 14.2579C102.417 14.2744 103.527 14.4848 104.502 14.8891C105.478 15.2934 106.295 15.8834 106.954 16.6589C107.613 17.4263 108.088 18.3669 108.38 19.4807L104.702 20.0995C104.569 19.522 104.323 19.0352 103.964 18.6391C103.606 18.2431 103.176 17.9419 102.676 17.7357C102.184 17.5294 101.667 17.418 101.125 17.4015C100.591 17.385 100.087 17.4593 99.6115 17.6243C99.1445 17.7811 98.761 18.0121 98.4608 18.3174C98.1689 18.6226 98.023 18.9857 98.023 19.4065C98.023 19.7943 98.1439 20.1119 98.3857 20.3594C98.6275 20.5987 98.9319 20.7926 99.2988 20.9411C99.6657 21.0896 100.041 21.2134 100.425 21.3124L103.552 22.154C104.019 22.2778 104.536 22.4428 105.103 22.6491C105.67 22.8471 106.212 23.1276 106.729 23.4906C107.254 23.8454 107.683 24.3157 108.017 24.9015C108.359 25.4873 108.53 26.2299 108.53 27.1293C108.53 28.0864 108.325 28.9238 107.917 29.6416C107.517 30.3512 106.975 30.9412 106.291 31.4115C105.607 31.8735 104.832 32.22 103.964 32.4511C103.105 32.6821 102.217 32.7976 101.3 32.7976Z" fill="#331B6D"/>
<path d="M84.1812 32.7976C82.7303 32.7976 81.4545 32.5088 80.3538 31.9313C79.2531 31.3454 78.3942 30.5245 77.7771 29.4684C77.16 28.4123 76.8515 27.1705 76.8515 25.7431V14.6292L80.3037 14.6045V25.7184C80.3037 26.3042 80.4038 26.8364 80.6039 27.3149C80.8041 27.7935 81.0792 28.206 81.4295 28.5525C81.788 28.8991 82.2008 29.1672 82.6678 29.357C83.1431 29.5385 83.6476 29.6293 84.1812 29.6293C84.7316 29.6293 85.2403 29.5344 85.7072 29.3446C86.1825 29.1548 86.5953 28.8867 86.9455 28.5402C87.2957 28.1936 87.5668 27.7811 87.7585 27.3025C87.9587 26.824 88.0587 26.2959 88.0587 25.7184V14.6045H91.511V25.7431C91.511 27.1705 91.2024 28.4123 90.5854 29.4684C89.9683 30.5245 89.1094 31.3454 88.0087 31.9313C86.908 32.5088 85.6322 32.7976 84.1812 32.7976Z" fill="#331B6D"/>
<path d="M63.3359 32.4263V14.6045H74.343V17.9708H66.7381V21.8322H72.8421V25.1986H66.7381V32.4263H63.3359Z" fill="#331B6D"/>
<path d="M24.929 19.5599C25.6165 18.8797 26.7311 18.8797 27.4186 19.5599L30.3613 22.4716C31.0488 23.1519 31.0488 24.2547 30.3613 24.935L20.8711 34.3251L15.4389 28.9501L24.929 19.5599Z" fill="#49288A"/>
<path d="M25.2151 11.2845C25.2151 11.4165 25.1621 11.5431 25.0678 11.6364L8.7297 27.8023C7.12632 29.3888 4.52673 29.3888 2.92335 27.8023C1.31997 26.2159 1.31998 23.6437 2.92336 22.0572L24.3565 0.849856C24.6734 0.536344 25.2151 0.758387 25.2151 1.20176L25.2151 11.2845Z" fill="url(#paint0_linear_17884_78895)"/>
<path d="M25.1956 38.7163C25.1956 38.5843 25.1426 38.4577 25.0483 38.3644L8.71017 22.1984C7.10679 20.6119 4.5072 20.6119 2.90382 22.1984C1.30044 23.7849 1.30044 26.3571 2.90382 27.9436L24.337 49.1509C24.6538 49.4644 25.1956 49.2423 25.1956 48.799L25.1956 38.7163Z" fill="url(#paint1_linear_17884_78895)"/>
<path d="M27.9274 38.7163C27.9274 38.5843 27.9804 38.4577 28.0748 38.3644L44.4129 22.1984C46.0163 20.6119 48.6158 20.6119 50.2192 22.1984C51.8226 23.7849 51.8226 26.3571 50.2192 27.9436L28.7861 49.1509C28.4692 49.4644 27.9274 49.2423 27.9274 48.799L27.9274 38.7163Z" fill="url(#paint2_linear_17884_78895)"/>
<path d="M27.9274 11.2845C27.9274 11.4165 27.9804 11.5431 28.0748 11.6364L44.4129 27.8024C46.0163 29.3889 48.6158 29.3889 50.2192 27.8024C51.8226 26.2159 51.8226 23.6437 50.2192 22.0572L28.7861 0.849887C28.4692 0.536374 27.9274 0.758418 27.9274 1.20179L27.9274 11.2845Z" fill="url(#paint3_linear_17884_78895)"/>
<defs>
<linearGradient id="paint0_linear_17884_78895" x1="25.2151" y1="11.4412" x2="11.565" y2="25.2367" gradientUnits="userSpaceOnUse">
<stop stop-color="#2D1667"/>
<stop offset="1" stop-color="#6137AA"/>
</linearGradient>
<linearGradient id="paint1_linear_17884_78895" x1="11.5371" y1="25.0921" x2="25.0695" y2="38.7686" gradientUnits="userSpaceOnUse">
<stop stop-color="#6137AA"/>
<stop offset="1" stop-color="#2D1667"/>
</linearGradient>
<linearGradient id="paint2_linear_17884_78895" x1="43.648" y1="26.2689" x2="27.1822" y2="43.742" gradientUnits="userSpaceOnUse">
<stop stop-color="#14BAF9"/>
<stop offset="1" stop-color="#0772B1"/>
</linearGradient>
<linearGradient id="paint3_linear_17884_78895" x1="41.864" y1="25.2098" x2="28.3316" y2="11.5332" gradientUnits="userSpaceOnUse">
<stop stop-color="#14BAF9"/>
<stop offset="1" stop-color="#0772B1"/>
</linearGradient>
</defs>
</svg>
